<?xml version="1.0" encoding="UTF-8"?>
<!DOCTYPE svg PUBLIC "-//W3C//DTD SVG 1.0//EN" "http://www.w3.org/TR/2001/REC-SVG-20010904/DTD/svg10.dtd">
<!-- Creator: CorelDRAW X7 -->
<?xml-stylesheet href="ksa.css" type="text/css"?>
<svg xmlns="http://www.w3.org/2000/svg" xml:space="preserve" width="389px" height="550px" version="1.0" style="shape-rendering:geometricPrecision; text-rendering:geometricPrecision; image-rendering:optimizeQuality; fill-rule:evenodd; clip-rule:evenodd"
viewBox="0 0 389 550"
 xmlns:xlink="http://www.w3.org/1999/xlink">
 <defs>
   <clipPath id="id0">
    <path d="M188 86c0,-1 0,-1 0,-2 0,-1 0,-2 2,-2 2,0 1,-1 3,-2 2,0 4,-1 6,-1 1,0 2,-1 2,0 1,1 3,4 3,5 0,1 2,3 3,3 0,0 1,1 3,2 1,2 2,2 4,3 2,0 5,0 6,0 1,-1 3,-1 3,0 0,1 -1,3 0,2 1,0 3,-1 3,-1 0,0 1,-1 1,1 0,1 1,4 2,5 1,1 1,3 2,1 1,-1 2,-4 5,-5 2,0 4,-1 4,-3 0,-2 -1,-2 0,-3 0,0 2,0 2,-1 1,-1 3,-1 3,-1 1,1 1,1 3,0 1,0 1,-1 4,-1 2,0 3,0 3,1 -1,1 -1,2 -1,3 0,1 1,2 1,4 0,1 0,4 1,3 2,-1 3,-1 4,-1 1,0 0,1 1,2 0,1 0,3 1,2 2,0 3,-1 4,0 1,2 2,3 1,4 0,0 1,1 0,1 0,1 -5,3 -5,4 0,1 -1,2 -2,2 -1,0 -3,0 -4,0 0,1 -1,1 -2,3 -1,1 -3,4 -2,5 1,0 1,1 0,1 0,0 -1,2 -2,3 -2,1 -4,2 -4,2 -1,1 -1,1 -2,0 0,0 0,0 -1,0 0,0 -1,-2 -2,-2 -1,0 -3,-1 -5,-1 -2,0 -10,0 -10,2 -1,2 -3,5 -4,5 -1,-1 -3,-1 -4,0 -1,0 -1,2 0,1 1,-1 1,-2 2,-1 1,1 4,2 5,1 0,-2 1,-5 4,-5 3,-1 7,-1 7,0 -1,2 -1,3 0,4 0,0 1,0 0,1 0,1 1,1 1,2 0,1 0,3 0,4 0,1 -1,1 0,2 1,0 1,-1 1,-1 0,0 0,0 1,0 1,0 1,0 1,-1 1,-1 1,-1 2,-2 2,0 4,1 4,2 0,1 -1,1 1,1 1,0 8,-5 9,-6 1,-1 5,-3 7,-4 2,-1 4,-1 6,0 2,0 9,3 11,7 2,3 4,7 6,9 3,2 3,3 3,3 1,0 2,-1 3,-1 1,0 1,2 2,1 2,0 2,0 2,0 0,1 -1,2 0,2 2,0 3,0 4,1 1,1 3,1 3,1 1,0 3,1 4,0 1,0 2,0 3,-1 0,-1 1,0 1,0 0,1 1,2 -1,3 -2,0 -3,1 -4,1 -1,0 -1,0 -1,1 -1,1 -2,2 -3,2 -1,0 -1,1 -2,1 -1,0 -1,1 -2,1 0,1 0,2 -1,3 -1,0 -1,0 -1,1 1,0 0,1 0,1 -1,0 -2,0 -2,1 0,0 -1,1 -1,1 -1,1 -1,1 -1,1 0,0 0,1 -1,1 0,0 0,0 0,1 0,0 0,1 -1,1 -1,0 -2,1 -2,0 0,0 0,0 0,0 -1,1 -1,2 -2,2 -1,-1 -2,-1 -2,0 -1,0 -3,2 -3,0 0,-1 0,-1 -1,-1 0,1 -1,1 -1,1 -1,0 -1,1 -1,1 0,1 1,2 0,2 -1,0 -1,1 -1,2 1,0 1,0 1,1 0,0 0,1 1,0 0,-1 1,-3 2,-3 1,0 0,0 1,0 1,0 0,1 0,2 -1,0 -3,2 -2,3 1,0 1,0 2,-1 1,-2 1,-2 1,-3 0,-1 3,-2 4,-2 1,-1 2,0 2,-1 0,0 0,-1 1,-1 0,0 1,-1 2,0 0,0 1,0 1,0 1,0 1,0 1,0 -1,1 0,2 0,2 0,1 1,1 2,0 0,-1 0,-2 0,-2 1,0 2,0 1,-1 0,0 -1,-1 -2,0 -1,0 -2,0 -2,0 -1,0 1,-1 1,-2 0,0 0,-1 1,-1 1,0 1,0 2,-1 1,0 2,0 2,0 1,0 2,-1 2,-1 0,-1 0,-1 0,0 0,0 2,0 1,0 0,0 0,1 1,1 0,0 1,0 1,1 0,1 0,1 0,1 -1,1 -1,1 -1,1 0,1 0,1 -1,1 0,0 -2,1 -1,1 1,1 1,1 1,1 1,0 0,2 1,2 0,0 2,1 1,1 0,1 -1,1 -1,2 0,0 0,0 0,-1 -1,0 -1,0 -1,1 0,0 -1,1 -1,1 -1,1 -1,1 -1,1 1,0 2,0 2,1 -1,1 -1,1 -1,1 1,0 2,0 2,1 -1,0 -2,0 -2,1 0,1 -1,1 0,2 2,0 2,1 3,0 0,0 1,0 0,1 0,0 -1,1 0,1 0,1 0,2 0,1 -1,0 -1,0 -1,1 0,0 -2,1 -3,1 0,0 -2,2 -2,2 -1,-1 -1,-1 -1,-2 -1,0 -2,-1 -1,-1 1,-1 1,-2 1,-3 -1,0 -1,0 -1,-1 1,-1 1,-1 0,-1 0,0 -1,0 0,-1 1,0 2,-2 0,-1 -1,0 -1,0 -1,-1 0,-1 0,-1 0,-1 -1,0 -2,0 -1,0 0,0 1,3 0,3 0,0 -1,0 0,1 0,1 1,2 0,3 0,1 0,1 0,2 -1,0 -1,1 -1,1 0,0 0,-1 -1,-1 0,0 -1,2 -2,1 -1,0 -2,1 -2,-1 0,-1 1,-6 0,-6 0,0 0,1 0,1 -1,0 -1,0 0,0 0,1 0,2 0,3 0,0 -1,1 0,2 0,1 -1,2 -1,1 0,0 0,-1 -1,-1 0,-1 0,-1 0,-2 0,0 0,-2 0,-2 -1,0 -2,-1 -1,0 0,0 1,1 0,1 -1,0 -2,-1 -3,0 0,0 0,1 0,1 1,1 1,1 1,2 -1,0 -1,0 -1,1 0,1 1,1 0,1 -1,0 -2,2 -2,1 1,-1 0,-2 0,-1 0,0 0,1 0,1 -1,1 -1,1 -1,0 -1,0 -1,-1 -2,0 0,0 0,1 0,1 1,0 2,-1 2,0 0,1 0,0 1,1 0,1 1,2 2,1 1,0 2,-1 2,0 1,0 2,1 3,0 0,0 1,0 1,1 0,1 -1,1 -1,2 0,1 -1,1 -1,1 -1,0 -1,-2 -2,-1 0,0 -1,0 -1,0 -1,0 -1,1 -1,1 1,0 1,1 0,1 0,1 0,2 1,1 1,0 1,0 1,-1 -1,0 -1,-1 -1,-1 0,0 0,0 1,0 1,1 3,1 4,0 0,-1 0,-1 0,0 1,0 0,0 1,0 1,0 2,1 2,1 -1,1 -1,1 -1,1 -1,1 -2,1 -1,2 0,0 2,0 3,1 0,1 0,1 -1,1 0,0 0,1 -1,1 0,0 0,0 -1,0 -1,-1 -4,-2 -4,-1 -1,1 -1,1 -1,0 0,0 0,-2 -1,-2 0,1 0,2 -1,1 0,0 -2,0 -2,0 0,1 1,1 2,1 0,0 0,1 1,1 1,1 1,1 3,1 1,0 2,1 2,2 -1,0 -1,2 0,1 1,0 1,0 2,0 0,1 0,1 0,1 -1,0 -3,2 -2,2 1,0 2,-1 2,0 0,0 -1,0 -1,1 -1,0 -2,0 -2,1 0,1 1,2 0,2 -1,0 -2,0 -3,1 -1,1 -3,1 -4,0 -1,0 -2,1 -1,2 0,0 2,0 2,3 1,2 2,4 3,5 0,1 0,0 1,0 1,-1 2,-1 2,0 -1,2 -1,2 -2,2 0,0 -1,0 0,1 1,0 1,1 0,1 -1,1 -1,1 0,2 1,2 0,4 1,4 1,0 1,0 2,1 0,1 1,-1 2,0 0,0 0,0 -1,1 0,0 0,0 0,1 0,1 -1,2 -1,2 0,0 -1,0 0,0 0,1 0,1 -1,1 -1,1 -1,1 -1,0 0,-1 0,-1 0,-2 -1,0 -1,-2 -1,-1 -1,0 -2,0 -2,-1 -1,-1 -3,0 -3,0 0,0 -1,3 -1,2 -1,-1 -1,-1 -2,-1 0,0 0,1 0,2 1,0 2,0 1,1 -1,1 -1,1 -1,1 -1,0 -2,1 -2,2 0,0 -1,1 0,1 0,0 1,0 1,0 0,-1 1,0 0,1 0,0 -1,2 -2,2 0,-1 -1,-2 -1,-2 -1,0 -2,0 -2,-1 0,0 0,0 0,0 -1,1 -1,1 -1,2 0,0 -1,1 0,2 1,0 2,1 2,2 -1,1 -1,1 -2,1 -1,-1 -2,-1 -1,-1 0,1 1,1 0,1 0,1 -1,0 -1,0 0,0 -2,1 -2,2 0,0 0,-1 -1,-1 -1,1 -1,1 -1,0 0,-1 1,-2 0,-2 0,0 -1,-2 0,-3 1,0 2,-1 2,-2 1,0 1,0 1,-1 0,-1 0,-2 2,-1 1,1 2,2 2,0 -1,-1 -2,-3 -2,-4 1,-1 0,-2 0,-2 0,0 -2,0 -2,-1 1,-1 2,-1 2,-1 0,-1 -1,-1 -2,-1 0,0 -1,-2 -1,-1 -1,0 -1,0 0,1 0,1 -1,1 -2,1 0,1 0,1 -1,2 0,2 -1,2 -2,2 -1,-1 -1,-2 -2,-2 0,1 -1,2 0,2 1,0 2,0 3,1 1,0 1,0 1,1 0,1 -1,1 0,1 0,1 0,2 -1,2 -1,-1 -1,-1 -1,0 1,1 1,1 0,1 -1,0 -1,0 -1,1 0,1 0,1 -1,1 -1,0 -1,0 -1,0 0,1 0,2 -1,2 -1,0 -1,0 -1,1 1,0 2,1 1,2 -1,1 -1,1 -1,2 -1,1 -1,2 -2,2 0,0 -1,0 -2,0 0,0 -4,0 -5,-1 0,-1 -1,-1 -1,-1 0,0 0,0 -1,0 -1,-1 -1,-1 -1,-1 -1,0 -3,0 -3,0 0,-1 0,-1 -1,-1 0,1 -1,2 -2,1 -1,0 -1,-1 -1,-2 0,-1 -1,-1 -1,0 0,0 0,3 1,3 1,0 3,0 4,0 1,0 2,1 2,1 0,1 1,1 1,1 1,0 1,1 2,1 0,0 3,0 3,1 1,1 1,3 1,4 -1,1 -1,2 -2,2 -1,1 -2,1 -2,2 0,0 -2,3 -2,4 0,1 0,2 -2,1 -1,0 -2,1 -2,1 1,0 1,1 0,2 0,0 -1,1 0,1 0,0 1,1 0,2 0,0 -1,1 -1,1 -1,0 -1,0 -1,0 0,1 -1,1 -1,1 -1,0 -1,0 -1,1 1,0 1,0 1,1 -1,1 -1,2 0,2 1,0 1,1 1,1 1,0 4,1 3,2 -1,1 -1,1 -1,1 0,0 0,0 -1,0 0,0 0,0 0,0 0,1 0,1 0,2 0,0 0,0 0,1 0,0 0,2 -1,1 -1,0 -1,-1 -2,-1 0,0 0,0 -1,0 0,0 -1,0 -1,0 0,0 0,0 0,0 1,1 1,1 0,1 0,0 0,1 0,1 -1,1 -2,1 -1,2 1,0 2,0 2,0 0,1 -1,2 -1,2 -1,0 -2,1 -2,1 1,1 2,2 1,2 -1,1 0,1 0,2 0,0 -1,2 -2,2 -1,0 -1,0 -1,-1 0,-1 0,-2 0,-2 -1,0 -1,1 -1,2 0,1 -1,-1 -1,-1 0,0 -1,-1 0,-3 0,-1 -1,-3 -1,-4 -1,0 -2,-1 -2,-2 -1,-1 -1,-2 -2,-2 -1,0 -2,0 -2,-1 -1,0 -1,-1 -2,-1 -2,0 -5,0 -5,0 0,0 -1,1 -2,1 0,1 -2,3 -3,3 0,0 -1,0 -2,-1 0,0 -1,-1 -2,0 -1,1 -2,2 -3,3 -1,0 -2,0 -2,0 -1,0 -1,-1 -1,0 -1,0 0,0 -1,0 -1,0 -2,0 -2,0 0,0 -1,0 -1,0 1,-1 1,-2 0,-2 0,0 0,-1 -1,-1 0,-1 0,-2 -1,-3 -1,0 -1,-1 -1,-2 0,-1 1,-4 0,-4 -1,0 -2,0 -2,0 0,-1 1,-3 -1,-2 -1,0 -2,-1 -1,-2 1,-1 1,-3 -1,-3 -1,0 -4,0 -5,2 0,1 -2,6 -2,6 -1,1 -4,0 -4,0 -1,1 -3,3 -4,4 -1,0 -1,0 -2,1 0,1 -1,2 -2,2 -2,-1 -4,-1 -4,-2 -1,-1 -1,-2 -2,-2 -1,1 -2,1 -2,0 -1,0 -1,0 -2,0 -2,0 -5,1 -5,1 0,0 -1,0 -1,-1 -1,0 -3,-3 -2,-3 1,0 2,0 2,-2 0,-1 0,-5 -1,-6 0,-1 0,-1 0,-2 0,-1 -1,-2 -1,-3 -1,-1 -1,-2 -1,-2 0,-1 0,-2 -1,-4 0,-1 0,-2 -1,-3 0,0 -1,-1 -2,-2 -1,0 -1,0 -1,-1 -1,-2 -1,-4 0,-5 1,-2 3,-3 3,-4 -1,-1 -2,-3 -2,-4 1,-1 3,-2 1,-3 -1,0 -2,0 -2,-1 0,-1 -1,-3 -2,-2 -1,0 -1,1 -2,2 -1,0 -2,1 -3,1 0,-1 -1,-2 -2,-2 -1,0 -3,0 -3,1 -1,1 -1,1 -2,1 0,0 -1,-1 -1,-2 -1,0 -1,0 0,-1 0,-1 2,-2 1,-3 0,-1 -1,-3 -1,-3 0,-1 1,-3 1,-4 -1,-1 -2,-1 -2,-2 0,-1 1,-2 0,-3 -1,-1 -1,-1 -1,-2 1,-1 2,-4 1,-5 -1,0 -1,-2 -1,-3 0,-1 -1,-3 -1,-4 -1,0 -2,-1 -2,-1 -1,0 -1,0 -1,-1 0,-1 -1,-5 -3,-5 -1,1 -3,1 -2,0 0,-1 1,-2 0,-2 -1,-1 -2,-2 -3,-2 -1,0 -2,0 -2,-1 -1,-1 -1,-2 -2,-2 0,0 0,-1 0,-1 0,0 0,-1 -1,-2 0,0 0,0 0,-1 1,-1 0,-2 0,-3 -1,0 -1,-1 0,-2 1,-1 1,-1 1,-2 0,-2 0,-3 2,-3 1,1 3,1 4,-1 0,-1 1,-2 1,-3 0,-1 -1,-2 1,-3 2,-1 1,-1 3,-1 3,1 2,0 2,-1 0,-1 -1,-3 1,-2 2,0 2,0 5,-1 2,-1 2,0 2,-2 0,-1 1,-2 2,-3 1,0 3,-4 4,-3 1,0 2,0 3,-1 1,-1 4,-3 4,-4 0,-1 -1,-2 0,-3 0,-1 0,-2 1,-3 2,-1 5,-3 4,-4 0,-1 0,-2 0,-2 1,0 3,0 3,-1 -1,-2 -1,-6 -1,-6 -1,0 -1,-3 0,-3 1,-1 1,-1 0,-2 0,0 -2,0 -1,-1 1,-1 4,-2 3,-2 -1,-1 -2,-1 -2,-3 0,-1 2,-5 4,-5 2,1 3,1 4,2 0,0 1,1 2,0 1,0 1,0 2,1 2,0 5,1 5,0 1,-2 2,-2 3,-3 1,-1 2,-1 3,0 0,1 2,1 2,0 0,-1 0,-2 -1,-2 -1,-1 -1,-3 -2,-4 0,-1 0,-4 -1,-4 -1,0 -3,1 -3,0 0,-1 1,-3 0,-4 0,-1 0,-1 1,-1 1,0 3,-1 4,-2 1,-1 2,-2 2,-1 0,1 1,2 2,1 1,-1 3,-3 3,-3 -1,-1 0,-4 0,-4 1,0 3,-1 3,-2 0,0 1,-2 0,-3 0,-1 0,-2 1,-3 0,-1 2,-3 2,-5 0,-1 0,-3 0,-3l0 0zm124 70c0,0 0,-2 0,-1 -1,0 -1,1 -1,0 -1,0 -2,0 -2,1 0,1 0,2 0,2 -1,0 -1,1 -1,1 1,0 1,-1 2,0 0,0 2,0 1,0 0,1 0,1 0,1 1,0 1,0 1,1 0,0 0,1 0,1 1,-1 2,-1 2,0 0,0 1,0 1,0 0,-1 1,-2 0,-2 -1,-1 -1,-2 -2,-2 -1,0 -1,0 -1,0 0,-1 0,-2 0,-2l0 0zm-6 3c0,0 1,-1 1,-1 1,-1 0,-1 0,-1 0,0 -1,0 -1,1 0,0 0,1 0,1l0 0zm18 -8c-1,0 0,0 0,-1 0,0 0,0 0,-1 -1,-1 -1,-3 -1,-3 0,0 1,0 2,0 0,0 1,-1 1,-1 0,1 1,2 0,2 -1,0 -2,1 -1,1 2,0 2,0 1,1 0,1 -2,1 -1,2 0,0 1,2 0,1 -1,0 -1,0 -1,-1zm-4 -2c0,1 -2,1 -1,2 1,0 2,0 2,0 1,-1 1,-1 0,-1 0,-1 -1,-1 -1,-1l0 0zm0 5c0,0 1,-1 1,-1 -1,-1 -1,-2 -2,-1 0,0 0,1 -1,0 0,0 -1,-1 -1,0 -1,0 -1,0 0,1 0,0 1,0 1,1 0,0 0,1 1,1 0,0 1,0 1,1 1,0 1,0 1,-1 -1,-1 -1,-1 -1,-1l0 0zm-1 3c0,0 -2,-1 -2,-1 -1,0 -1,1 0,1 0,0 1,1 1,1 1,0 3,0 2,0 0,-1 -1,-1 -1,-1l0 0zm0 3c0,0 -2,0 -2,0 0,0 -1,-1 -1,-1 0,0 0,1 0,1 1,1 2,1 2,1 1,0 1,-1 1,-1 0,0 0,0 0,0l0 0zm0 -21c0,1 -1,1 -1,0 0,-1 -1,-1 -1,-1 -1,0 -2,-1 -2,-2 0,-1 -1,0 -1,0 -1,0 -2,1 -3,0 0,0 0,-2 -1,-2 -1,0 -2,0 -2,1 -1,1 -1,0 -2,0 0,0 0,-1 -1,0 -1,0 -1,0 -1,0 0,-1 0,-2 -1,-2 -1,0 0,0 -1,0 0,1 0,1 0,1 1,1 2,2 2,3 0,1 0,3 1,3 0,0 1,0 1,1 0,2 0,2 1,2 0,0 1,1 1,1 0,-1 0,-2 1,-2 1,0 1,0 2,1 1,1 1,0 2,0 1,0 2,0 2,1 1,1 4,2 5,2 2,0 1,-1 1,-1 -1,0 -1,-1 0,-2 0,0 1,-1 1,-2 -1,0 -2,-2 -3,-2l0 0zm-20 0c0,0 0,-1 -1,0 0,0 0,0 0,1 0,1 0,4 0,4 -1,1 0,1 0,1 1,-1 1,-1 1,-1 1,0 3,-1 2,-2 0,-1 0,-2 -1,-2 0,0 0,0 -1,0 0,-1 0,-1 0,-1l0 0zm16 -7c0,0 -2,-1 -2,0 0,0 -1,1 -1,1 0,1 0,1 0,1 0,1 0,1 1,0 1,0 2,-2 2,-2 0,0 0,0 0,0l0 0zm-4 -7c0,0 -1,1 -2,1 0,1 0,1 0,1 1,0 1,0 1,0 1,1 1,1 1,1 1,0 1,0 1,0 0,1 0,1 1,1 1,0 1,0 1,0 1,1 1,1 2,0 0,0 0,0 0,-1 0,0 -1,-1 -1,-1 0,-1 0,-1 1,-1 0,0 1,0 0,-1 0,0 -1,0 -1,-1 0,0 0,0 0,0 0,0 -2,2 -2,1 0,0 -2,-1 -2,-1 0,1 0,1 0,1l0 0zm11 4c0,0 0,-1 1,-1 1,0 1,0 1,0 0,1 -1,2 0,1 1,0 1,0 1,-1 0,0 0,0 0,-1 0,0 -1,0 -1,0 -1,0 -3,0 -3,1 -1,0 -1,0 -1,0 0,0 -2,1 -2,2 1,0 1,0 2,0 0,-1 1,-1 1,-1 1,0 1,0 1,0 0,0 0,0 0,0l0 0zm0 -11c0,0 0,-1 -1,0 0,0 -1,1 -1,1 0,1 0,1 0,1 -1,-1 -1,-1 -1,-1 -1,0 -1,0 -1,-1 0,-1 0,-2 0,-2 1,0 1,0 2,1 1,0 2,0 2,-1 0,0 1,-1 1,0 0,1 0,1 1,1 0,0 2,0 2,1 0,1 0,1 -1,1 -1,0 -3,0 -3,0 0,-1 0,-1 0,-1l0 0zm8 -16c0,0 0,-1 0,-1 0,0 -2,1 -3,0 -1,0 -2,-1 -1,-1 0,1 1,1 0,2 0,0 -1,1 0,1 0,0 1,-1 2,-1 1,0 2,1 2,1 1,-1 0,-1 0,-1l0 0zm2 3c0,-1 0,-1 -1,-1 0,0 -1,1 0,1 0,0 1,0 1,0 1,0 1,0 0,0l0 0zm10 -4c0,0 0,-1 -1,0 0,1 0,1 0,1 1,0 1,0 1,0 1,-1 1,-1 0,-1l0 0zm2 0c0,0 0,-1 -1,0 0,0 0,0 1,1 0,0 1,1 1,0 0,-1 0,-1 -1,-1l0 0zm-9 -5c0,0 -1,0 -1,0 0,-1 0,-1 0,-1 1,0 1,0 1,1l0 0zm1 0c0,0 0,0 0,0 0,-1 0,-1 0,0 0,0 0,0 0,0l0 0zm1 1c0,0 0,0 0,-1 0,0 0,0 0,0 0,0 0,0 0,1l0 0zm0 1c0,0 0,0 0,0 0,0 0,0 0,0 0,0 0,0 0,0l0 0zm-1 -4c0,0 0,-1 1,-1 1,0 0,1 1,1 1,0 0,0 0,0 0,0 -1,0 -2,0l0 0zm-28 13c0,0 0,-1 -1,-1 0,1 -1,1 0,1 0,0 0,0 1,0l0 0zm-1 2c0,1 0,0 0,1 1,1 1,1 1,0 0,0 0,-1 0,-1 0,0 -1,0 -1,0l0 0zm31 22c0,0 0,0 0,0 0,-1 0,-1 0,-1 1,1 1,2 1,2 0,0 -1,-1 -1,-1l0 0zm-1 -1c0,0 -1,0 -1,0 0,1 0,1 0,1 1,1 1,0 1,0 0,-1 0,-1 0,-1l0 0zm3 1c0,0 -1,-1 -1,0 0,1 1,1 1,0 0,0 0,0 0,0 0,0 0,0 0,0l0 0zm-32 59c0,0 0,0 -1,1 0,0 -1,0 0,0 1,0 1,-1 2,0 1,0 1,0 1,-1 0,0 -1,0 -1,0 0,0 -1,0 0,0 0,-1 -1,-2 -1,-2 0,0 0,0 0,1 0,0 0,1 0,1l0 0zm-3 3c0,0 -2,-3 -2,-3 0,0 0,0 0,0 -1,1 -3,2 -3,2 0,1 0,1 1,2 0,0 2,0 1,0 0,1 -1,2 0,2 1,0 1,0 1,0 0,1 0,1 0,1 0,1 0,1 1,1 0,-1 0,-2 1,-2 1,0 0,0 0,-1 0,0 -1,0 0,-1 0,0 1,-1 0,-1l0 0zm-7 3c0,0 0,-2 0,-2 1,0 2,0 2,0 0,-1 -1,-2 -1,-2 0,1 -1,1 -1,1 -1,-1 -1,-1 -2,-1 0,0 -1,0 -1,0 0,1 0,1 0,1 0,1 1,1 1,1 1,0 1,0 1,0 1,1 0,1 0,1 -1,0 -1,0 -1,1 1,0 1,1 1,1 1,-1 1,-1 1,-1l0 0zm18 -20c0,0 1,-1 1,-2 -1,0 -1,0 -1,0 0,1 -1,1 -1,2 0,0 0,0 0,0 1,0 1,0 1,0l0 0zm-15 56c0,0 2,-2 3,-1 0,0 0,0 0,0 0,1 -1,1 -1,1 -1,0 -2,1 -2,0l0 0zm1 -3c0,0 0,-2 0,-1 1,0 2,1 1,1 -1,1 -1,1 -1,0l0 0zm-13 8c0,0 1,0 0,0 0,0 1,-2 0,-2 0,1 -2,3 -1,3 0,0 1,0 1,-1l0 0zm-28 23c0,0 -2,0 -2,1 0,0 -1,1 0,1 1,-1 1,-1 2,0 0,0 1,1 1,0 1,0 1,-1 2,-1 0,0 0,0 0,0 -1,0 -1,-1 -2,-1 0,0 -1,0 -1,0l0 0zm4 0c0,0 0,1 1,0 0,0 0,0 1,0 0,0 1,-1 0,-1 -1,0 -2,0 -2,1l0 0zm-2 8c-1,0 -2,1 -2,1 1,0 2,0 3,0 0,0 1,1 1,0 0,-1 0,-2 0,-2 -1,1 -2,1 -2,1l0 0zm0 -3c0,0 0,-1 1,-1 0,1 0,1 -1,2 0,0 -1,0 -1,-1 0,0 1,0 1,0l0 0zm-5 2c0,0 0,0 0,-1 0,0 0,0 1,0 0,1 1,1 1,1 -1,1 -1,1 -2,1 0,0 0,-1 0,-1l0 0zm-12 -7c-1,0 -2,0 -2,-1 0,0 0,0 1,0 0,0 1,0 1,0 0,1 0,1 0,1l0 0zm14 30c0,0 0,-1 1,0 0,0 1,0 1,0 0,-1 0,-1 -1,-1 0,0 0,-1 0,0 -1,0 -1,0 -2,0 0,1 0,2 1,2 0,0 0,-1 0,-1l0 0z"/>
   </clipPath>
 </defs>
 <g id="图层_x0020_1">
  <metadata id="CorelCorpID_0Corel-Layer"/>
  <path class="fil0" d="M188 86c1,-1 1,-1 1,-2 0,-1 -1,-2 1,-2 2,0 1,-1 3,-2 2,0 5,-1 6,-1 1,0 2,-1 3,0 0,1 2,4 2,5 1,1 2,3 3,3 1,0 2,1 3,2 1,2 2,2 4,3 2,0 5,0 6,0 1,-1 4,-1 3,0 0,1 -1,3 0,2 1,0 3,-1 3,-1 1,0 1,-1 1,0 1,2 1,5 2,6 1,1 1,3 2,1 1,-1 3,-4 5,-5 2,0 4,-1 4,-3 0,-2 -1,-2 0,-3 1,0 2,0 3,-1 0,-1 2,-1 2,-1 1,1 2,1 3,0 1,0 2,-1 4,-1 2,0 3,0 3,1 0,1 -1,2 -1,3 1,1 1,2 1,4 0,1 0,4 2,3 1,-1 2,-1 3,-1 1,0 1,1 1,2 0,1 0,3 2,2 1,-1 2,-1 3,0 2,2 2,3 2,4 0,0 0,1 0,1 -1,1 -5,3 -6,4 0,1 -1,2 -2,2 -1,0 -3,0 -3,0 -1,1 -2,1 -3,3 -1,1 -2,4 -2,4 1,1 1,2 1,2 -1,0 -2,2 -3,3 -1,1 -4,1 -4,2 0,0 -1,1 -1,0 -1,0 -1,0 -2,0 0,0 -1,-2 -2,-2 0,0 -3,-1 -5,-1 -2,0 -9,0 -10,2 -1,1 -3,5 -4,4 -1,0 -3,0 -4,1 -1,0 -1,2 0,1 2,-1 1,-2 2,-1 1,1 4,2 5,1 1,-2 1,-5 4,-5 3,-1 7,-1 7,0 0,2 0,3 0,3 1,1 1,1 1,2 -1,1 0,1 0,2 0,1 0,3 0,4 0,1 0,1 0,2 1,0 1,-1 1,-1 0,-1 1,0 1,0 1,0 1,0 1,-1 1,-1 1,-1 2,-2 2,0 4,0 4,2 0,1 0,1 1,1 1,0 9,-5 10,-6 1,-1 4,-3 6,-4 2,-1 4,-1 6,0 2,0 9,3 11,7 2,3 5,7 7,9 2,2 2,3 3,3 1,0 1,-1 2,-1 1,0 1,2 3,1 1,0 2,0 1,0 0,1 -1,1 0,2 2,0 4,0 5,1 1,1 2,1 3,1 1,0 2,1 3,0 1,0 2,0 3,-1 1,-1 1,-1 1,0 1,1 1,2 -1,3 -2,0 -3,1 -4,1 0,0 0,0 -1,1 -1,1 -2,2 -2,2 -1,0 -2,1 -3,1 0,0 -1,1 -1,1 0,1 -1,2 -2,3 -1,0 -1,0 0,1 0,0 -1,1 -1,1 -1,0 -2,0 -2,1 0,0 0,1 -1,1 0,1 -1,1 -1,1 0,0 0,1 0,1 -1,0 -1,0 -1,1 0,0 0,1 -1,1 -1,0 -1,1 -2,0 0,0 0,0 0,0 0,1 -1,2 -2,2 -1,-1 -2,-1 -2,0 -1,0 -2,2 -3,0 0,-1 0,-1 -1,-1 0,1 0,1 -1,1 0,0 -1,1 0,1 0,1 0,2 -1,2 -1,0 -1,1 -1,2 1,0 1,0 1,1 0,0 0,1 1,0 0,-1 1,-3 2,-3 1,0 0,0 1,0 1,0 1,1 0,2 0,0 -2,2 -2,3 1,0 2,0 3,-1 0,-2 1,-2 1,-3 0,-1 2,-2 3,-2 1,-1 2,0 2,-1 0,0 1,-1 1,-1 1,0 2,-1 2,0 1,0 1,0 2,0 0,0 1,0 0,0 0,1 0,2 0,2 0,1 2,1 2,0 1,-1 0,-2 1,-2 0,0 1,0 1,-1 -1,0 -2,-1 -3,0 -1,0 -2,0 -2,0 0,-1 1,-1 1,-2 1,0 1,-1 2,-1 0,0 1,0 1,-1 1,0 2,0 3,0 0,0 1,-1 1,-1 0,-1 0,-1 0,-1 1,1 2,1 2,1 0,0 0,1 0,1 1,0 1,0 1,1 1,0 1,1 0,1 -1,1 -1,1 -1,1 0,1 0,1 0,1 -1,0 -2,1 -2,1 1,1 1,1 2,1 0,0 0,2 0,2 1,0 2,1 2,1 -1,1 -1,1 -1,2 0,0 -1,0 -1,-1 0,0 -1,0 -1,1 0,0 -1,1 -1,1 0,1 -1,1 0,1 0,0 1,0 1,1 0,1 -1,1 0,1 0,0 1,0 1,1 -1,0 -2,0 -2,1 0,1 -1,1 1,2 1,0 1,0 2,0 1,0 1,0 1,1 -1,0 -1,1 -1,1 1,1 1,2 0,1 -1,0 -1,0 -1,0 0,1 -2,2 -2,2 -1,0 -2,2 -3,2 -1,-1 -1,-1 -1,-2 0,0 -2,-1 -1,-1 2,-1 1,-2 1,-3 0,0 -1,0 0,-1 0,-1 0,-1 0,-1 -1,0 -2,0 -1,-1 1,0 2,-2 1,-1 -1,0 -2,0 -2,-1 0,-1 1,-1 0,-1 -1,0 -1,0 -1,0 0,0 1,3 1,3 -1,0 -1,0 -1,1 1,1 1,2 1,3 0,1 0,1 -1,1 0,1 0,2 -1,2 0,0 0,-1 -1,-1 0,0 0,2 -2,1 -1,0 -1,0 -1,-1 0,-1 0,-6 0,-6 -1,0 0,1 -1,1 0,0 0,0 0,0 0,1 0,2 0,3 0,0 0,1 0,2 0,1 0,2 -1,1 0,0 0,-1 -1,-1 0,-1 0,-1 0,-2 1,0 1,-2 0,-2 0,0 -1,-1 -1,0 0,0 1,1 0,1 -1,0 -2,-1 -2,0 -1,0 -1,1 0,1 0,0 0,1 0,2 -1,0 -1,0 -1,1 1,1 1,1 0,1 0,0 -1,2 -1,1 0,-1 0,-2 -1,-1 0,0 0,1 0,1 0,1 0,1 -1,0 0,0 -1,-1 -2,0 0,0 0,1 1,1 0,0 1,-1 1,0 0,1 0,0 1,1 1,1 2,2 2,1 1,0 2,-1 3,0 1,0 1,1 2,0 1,0 1,0 1,1 0,1 0,1 0,2 0,1 -1,1 -2,1 -1,0 -1,-2 -2,-1 0,0 0,0 -1,0 -1,0 -1,1 0,1 0,0 0,1 0,1 -1,1 -1,2 0,1 1,0 1,0 1,-1 -1,0 -1,-1 -1,-1 0,0 1,0 1,0 1,0 4,1 4,0 0,-1 0,-1 1,-1 0,1 0,1 0,1 1,0 2,1 2,1 -1,1 0,1 -1,1 -1,1 -1,1 -1,2 1,0 3,0 3,1 1,1 0,1 0,1 -1,0 -1,1 -1,1 -1,0 -1,0 -2,0 -1,-1 -4,-2 -4,-1 0,1 -1,1 -1,0 0,0 0,-2 0,-2 -1,1 -1,1 -2,1 0,0 -1,0 -1,0 0,1 0,1 1,1 0,0 0,0 1,1 1,1 2,1 3,1 1,0 3,1 2,2 0,0 -1,2 0,1 1,0 1,0 2,0 1,1 0,1 0,1 -1,0 -2,1 -1,1 1,0 2,0 1,1 0,0 -1,0 -1,1 0,0 -1,0 -1,1 0,1 0,2 -1,2 -1,0 -2,0 -3,1 0,1 -3,1 -4,0 -1,0 -2,1 -1,2 1,0 2,0 3,3 0,2 1,4 2,5 0,1 0,0 1,0 1,-1 3,-1 2,0 -1,2 -1,2 -2,2 0,0 -1,0 0,1 1,0 1,1 0,1 0,1 -1,1 0,2 1,2 0,4 1,4 1,0 1,0 2,1 1,1 1,-1 2,0 1,0 0,0 0,1 -1,0 -1,0 -1,1 0,1 0,2 -1,2 0,0 -1,0 0,0 0,1 0,1 -1,1 -1,0 -1,1 -1,0 0,-1 1,-1 0,-2 0,0 0,-2 -1,-1 -1,0 -1,0 -2,-1 0,-1 -2,-1 -3,0 0,0 0,3 -1,2 -1,-1 -1,-1 -1,-1 -1,0 -1,1 0,2 0,0 1,0 0,1 -1,1 0,1 -1,1 -1,0 -1,1 -1,2 0,0 -2,1 -1,1 1,0 1,0 1,0 1,-1 1,0 0,0 0,1 -1,3 -1,3 -1,-1 -1,-2 -2,-2 -1,0 -1,0 -1,-1 0,0 0,0 -1,0 0,1 -1,1 -1,2 0,0 -1,1 0,2 1,0 3,1 2,2 -1,1 -1,1 -2,1 -1,-1 -1,-1 -1,-1 0,1 1,1 0,1 0,0 0,0 -1,0 0,0 -1,1 -2,2 0,0 0,-1 -1,-1 -1,1 -1,1 -1,0 0,-1 1,-2 1,-2 -1,0 -2,-2 -1,-3 1,-1 3,-1 3,-2 0,0 0,0 0,-1 0,-1 0,-2 2,-1 1,1 3,1 2,0 0,-1 -2,-3 -1,-4 1,-1 -1,-2 -1,-2 0,0 -2,0 -1,-1 0,-1 1,-1 1,-1 1,-1 -1,-1 -1,-1 -1,0 -1,-2 -2,-2 0,1 0,1 0,2 0,1 0,1 -1,1 -1,1 -1,1 -2,2 0,2 0,2 -2,2 -1,-1 -1,-2 -1,-2 -1,1 -1,2 -1,2 1,0 2,0 3,1 1,0 1,0 1,1 0,1 -1,1 0,1 1,1 0,2 -1,2 0,-1 -1,-1 0,0 0,1 0,1 0,1 -1,0 -2,0 -2,1 0,1 0,1 -1,1 0,-1 -1,0 -1,0 0,1 0,2 -1,2 0,0 -1,0 0,1 0,0 1,1 0,2 0,1 0,1 -1,2 0,1 -1,2 -1,2 -1,0 -2,0 -3,0 0,0 -4,0 -4,-1 -1,-1 -1,-1 -2,-1 0,0 0,0 -1,0 -1,-1 0,-1 -1,-1 -1,0 -2,0 -3,0 0,-1 0,-1 -1,-1 0,1 -1,2 -2,1 0,0 -1,-2 -1,-2 0,-1 -1,-1 -1,-1 0,1 1,4 2,4 1,0 2,0 3,0 2,0 3,1 3,1 0,1 0,1 1,1 0,0 0,1 1,1 1,0 3,0 3,1 1,1 1,3 1,4 0,1 -1,2 -2,2 -1,1 -2,1 -2,2 0,0 -2,3 -2,4 0,1 0,2 -1,1 -2,0 -3,0 -2,1 0,0 0,1 0,2 -1,0 -2,1 -1,1 0,0 1,1 1,2 -1,0 -1,1 -2,1 0,0 -1,0 -1,0 0,1 -1,1 -1,1 0,0 -1,0 -1,0 1,1 1,1 1,2 0,1 0,2 0,2 1,0 1,1 2,1 0,0 3,1 2,2 0,1 -1,0 -1,1 0,0 0,0 0,0 -1,0 -1,0 -1,0 0,1 0,1 0,2 0,0 0,0 0,1 1,0 0,2 -1,1 0,0 -1,-1 -1,-1 -1,0 -1,0 -1,0 -1,0 -1,0 -2,0 0,0 0,0 1,0 0,0 0,1 -1,1 0,0 0,1 0,1 -1,1 -2,1 -1,2 2,0 2,0 2,0 0,1 0,2 -1,2 0,0 -2,1 -1,1 0,1 1,2 0,2 0,1 0,1 0,2 0,0 -1,1 -2,2 -1,0 -1,0 -1,-1 0,-1 1,-2 0,-2 0,0 -1,1 -1,2 0,1 -1,-1 -1,-1 0,0 -1,-1 0,-3 0,-1 0,-3 -1,-4 -1,0 -2,-1 -2,-2 0,-1 -1,-2 -2,-2 -1,0 -2,0 -2,-1 0,0 -1,-1 -2,-1 -2,0 -5,0 -5,0 0,0 -1,1 -1,1 -1,1 -3,3 -3,3 -1,0 -2,0 -2,-1 -1,0 -2,-1 -3,0 0,1 -1,2 -2,3 -2,0 -3,0 -3,0 0,0 -1,-1 -1,-1 0,1 0,1 -1,1 -1,0 -1,0 -2,0 0,0 0,0 0,0 0,-1 0,-2 0,-2 -1,0 -1,-1 -1,-1 -1,-1 -1,-2 -2,-3 0,0 -1,-1 -1,-2 0,-1 1,-4 0,-4 0,0 -2,0 -2,0 0,-1 1,-3 0,-3 -2,1 -2,0 -2,-1 1,-1 1,-3 0,-3 -2,0 -5,0 -6,2 0,1 -1,6 -2,6 -1,1 -4,-1 -4,0 -1,1 -2,3 -3,4 -1,0 -2,0 -2,1 -1,1 -2,2 -3,2 -1,-1 -4,-1 -4,-2 -1,-1 -1,-2 -2,-2 -1,1 -1,1 -2,0 -1,0 -1,-1 -2,0 -1,0 -4,1 -5,1 0,0 0,0 -1,-1 -1,0 -2,-3 -2,-3 1,0 3,-1 3,-2 -1,-1 -1,-5 -2,-6 0,-1 0,-1 0,-2 0,-1 0,-2 -1,-3 0,-1 0,-2 -1,-2 0,-1 0,-2 0,-4 0,-1 -1,-2 -1,-3 -1,0 -2,-1 -3,-2 -1,0 -1,0 -1,-1 0,-2 -1,-4 0,-5 1,-2 3,-3 3,-4 -1,-1 -2,-3 -1,-4 0,-1 2,-2 1,-3 -2,0 -2,0 -3,-1 0,-1 -1,-3 -2,-2 -1,0 -1,1 -2,2 -1,0 -2,1 -3,0 0,0 -1,-1 -2,-1 -1,0 -3,0 -3,1 -1,1 -1,1 -1,1 -1,0 -2,-1 -2,-2 0,0 -1,0 0,-1 1,-1 2,-2 2,-3 -1,-1 -2,-3 -2,-3 0,-1 1,-3 1,-4 -1,-1 -2,-1 -2,-2 0,-1 1,-2 0,-3 -1,-1 -1,-2 0,-2 0,-1 2,-4 1,-5 -1,0 -2,-2 -2,-3 0,-1 -1,-3 -1,-4 -1,0 -1,-1 -2,-1 -1,0 -1,0 -1,-1 0,-1 -1,-5 -2,-5 -2,1 -4,1 -3,0 1,-1 1,-2 0,-2 -1,-1 -2,-2 -3,-2 -1,0 -1,0 -2,-1 -1,-1 -1,-2 -1,-2 -1,0 -1,-1 -1,-1 0,0 0,-1 0,-2 -1,0 -1,0 -1,-1 1,-1 1,-2 0,-3 -1,0 -1,-1 0,-2 2,-1 2,-1 2,-2 -1,-2 -1,-3 1,-3 1,1 3,1 4,-1 0,-1 1,-2 1,-3 0,-1 0,-2 1,-3 2,-1 1,-1 4,-1 2,0 1,0 1,-1 0,-1 -1,-3 1,-3 2,1 3,1 5,0 2,-1 2,0 2,-2 1,-1 2,-2 3,-3 1,0 2,-4 3,-3 2,0 3,0 4,-1 1,-1 3,-3 3,-4 0,-1 0,-2 0,-3 0,-1 0,-2 1,-3 2,-1 5,-3 5,-4 -1,-1 -1,-2 0,-2 0,0 2,0 2,-1 0,-2 -1,-6 -1,-6 0,-1 0,-3 0,-3 1,-1 1,-1 1,-2 -1,0 -3,0 -2,-1 2,-1 4,-2 3,-2 0,-1 -1,-1 -1,-3 0,-1 1,-5 3,-5 3,1 3,1 4,2 0,0 2,1 2,0 1,0 1,0 3,1 1,0 4,1 5,0 0,-2 1,-3 2,-3 1,-1 2,-1 3,0 1,1 2,1 2,0 0,-1 0,-2 -1,-2 0,-1 -1,-3 -1,-4 0,-1 0,-4 -1,-4 -2,0 -3,1 -3,0 0,-2 0,-3 0,-4 -1,-1 0,-1 1,-1 0,0 2,-1 3,-2 1,-1 2,-2 2,-1 0,1 1,2 2,1 2,-1 3,-3 3,-3 0,-1 0,-4 1,-4 0,0 2,-1 2,-2 0,0 1,-2 1,-3 -1,-1 -1,-2 0,-3 1,-1 2,-4 2,-5 1,-1 0,-3 0,-3l0 0zm124 70c0,0 0,-2 0,-1 0,0 0,1 -1,0 -1,0 -2,0 -2,1 0,1 0,2 0,2 -1,0 -1,1 -1,1 1,0 1,-1 2,-1 0,1 2,1 1,1 0,1 0,1 1,1 0,0 1,0 0,1 0,0 0,1 1,1 0,-1 1,-1 2,0 0,0 0,0 0,0 1,-1 1,-2 0,-2 0,-1 0,-2 -1,-2 -1,0 -2,0 -2,-1 0,0 0,-1 0,-1l0 0zm-6 3c1,0 1,-1 2,-1 0,-1 0,-1 -1,-1 0,0 -1,0 -1,1 0,0 0,1 0,1l0 0zm18 -8c0,0 0,-1 0,-1 0,0 1,0 0,-1 -1,-1 0,-3 0,-3 -1,0 0,0 1,0 0,0 1,-1 1,-1 0,1 1,1 0,2 0,0 -1,1 0,1 1,0 1,0 1,1 -1,0 -2,1 -2,2 1,0 1,2 0,1 0,0 -1,-1 -1,-1zm-4 -2c0,1 -1,1 -1,1 1,1 2,1 2,1 1,-1 1,-1 1,-1 -1,-1 -1,-1 -2,-1l0 0zm0 5c0,0 1,-1 1,-1 -1,-1 -1,-2 -1,-1 -1,0 -1,1 -1,0 -1,0 -1,-1 -2,0 0,0 -1,0 0,0 1,1 1,1 1,2 0,0 0,1 1,1 1,0 1,0 2,0 0,1 1,1 0,0 0,-1 -1,-1 -1,-1l0 0zm-1 3c0,0 -2,-1 -2,-1 -1,0 -1,0 0,1 1,0 1,1 2,1 1,0 2,0 2,0 -1,-1 -2,-1 -2,-1l0 0zm0 3c0,0 -2,0 -2,0 0,0 0,-1 -1,-1 0,0 0,1 1,1 0,1 1,1 2,1 0,0 1,-1 0,-1 0,0 0,0 0,0l0 0zm0 -21c0,1 -1,1 -1,0 0,-1 0,-1 -1,-1 -1,0 -1,-1 -2,-2 0,-1 0,0 -1,0 0,0 -2,1 -2,0 -1,0 -1,-2 -2,-2 -1,0 -1,0 -2,1 -1,1 -1,0 -1,0 -1,-1 -1,-1 -2,-1 -1,1 -1,1 -1,0 0,0 0,-1 -1,-1 -1,0 0,0 0,0 -1,1 -1,1 -1,1 1,1 3,2 2,3 0,1 0,3 1,3 0,0 1,0 1,1 0,2 0,2 1,2 1,0 1,1 1,1 1,-1 0,-2 1,-2 1,0 2,0 2,1 1,1 1,0 2,0 1,0 2,0 3,1 0,1 4,2 5,2 1,0 0,-1 0,-1 0,-1 -1,-1 0,-2 0,0 1,-1 1,-2 -1,0 -2,-2 -3,-2l0 0zm-20 0c0,0 0,-1 0,0 -1,0 -1,0 -1,1 0,1 0,4 0,4 0,1 0,1 1,1 0,-1 0,-1 1,-1 0,0 2,-1 2,-2 -1,-1 -1,-2 -1,-2 -1,0 -1,0 -1,0 0,-1 -1,-1 -1,-1l0 0zm16 -7c0,0 -2,-1 -2,0 0,0 -1,1 -1,1 0,1 0,1 0,1 0,1 0,1 1,0 1,0 3,-2 2,-2 0,0 0,0 0,0l0 0zm-4 -7c0,0 -1,1 -1,1 -1,1 -1,1 0,1 0,0 1,0 1,0 0,1 0,1 0,1 1,0 1,0 1,0 1,1 0,1 1,1 1,0 1,0 2,0 0,0 0,1 1,0 0,0 0,0 0,-1 0,0 -1,-1 -1,-1 0,-1 1,-1 1,-1 0,0 1,0 0,-1 0,0 0,0 0,-1 0,0 -1,-1 -1,0 0,0 -1,1 -2,1 0,0 -1,-1 -2,-1 0,1 0,1 0,1l0 0zm11 4c0,0 1,-1 1,-1 1,0 1,0 1,0 0,1 0,2 0,1 1,0 2,0 1,-1 0,0 0,0 0,-1 0,0 0,0 -1,0 0,0 -3,0 -3,1 0,0 0,0 -1,0 0,0 -2,1 -1,2 0,0 1,0 1,0 0,-1 1,-1 1,-1 1,0 1,0 1,0 0,0 0,0 0,0l0 0zm0 -11c0,0 0,-1 0,0 -1,0 -1,1 -1,1 0,1 0,1 -1,1 0,-1 -1,-1 -1,-1 0,0 0,0 0,-1 0,-1 -1,-2 -1,-2 1,0 2,0 3,1 1,0 1,0 1,-1 1,0 1,-1 1,0 0,1 0,1 1,1 1,0 2,0 2,1 0,1 0,1 -1,1 0,0 -3,0 -3,0 0,-1 0,-1 0,-1l0 0zm9 -16c-1,0 -1,-1 -1,-1 0,0 -2,1 -3,0 0,0 -2,-1 -1,-1 1,1 1,1 0,2 0,0 -1,0 0,1 0,0 1,-1 2,-1 1,0 2,1 3,1 0,-1 0,-1 0,-1l0 0zm2 2c-1,0 -1,0 -1,0 -1,0 -2,0 -1,1 1,0 1,0 1,0 1,0 1,0 1,-1l0 0zm10 -3c0,0 -1,-1 -1,0 -1,1 -1,1 0,1 0,0 0,0 1,0 0,-1 0,-1 0,-1l0 0zm2 0c-1,0 -1,-1 -1,0 0,0 0,0 0,1 1,0 1,1 1,0 0,-1 0,-1 0,-1l0 0zm-10 -5c0,0 -1,0 -1,0 0,-1 0,-1 1,-1 0,0 0,0 0,1l0 0zm2 0c0,0 -1,0 -1,0 0,-1 0,-1 0,-1 0,0 1,1 1,1l0 0zm1 0c0,1 -1,1 -1,0 0,0 0,0 0,0 0,0 1,0 1,0l0 0zm0 2c0,0 -1,0 -1,0 0,0 0,0 0,0 0,0 1,0 1,0l0 0zm-1 -4c0,0 -1,-1 0,-1 1,0 1,1 1,1 1,0 1,0 0,0 0,0 -1,0 -1,0l0 0zm-29 13c0,0 0,-1 0,-1 -1,1 -2,1 -1,1 0,0 1,0 1,0l0 0zm0 2c0,1 -1,0 0,1 0,1 1,1 1,0 0,-1 0,-1 -1,-1 0,0 0,0 0,0l0 0zm30 22c0,0 0,0 0,0 0,-1 1,-1 1,-1 0,1 1,2 0,2 0,0 -1,-1 -1,-1l0 0zm-1 -1c0,0 0,0 0,0 -1,1 -1,1 0,1 0,1 0,0 0,0 0,-1 0,-1 0,-1l0 0zm3 1c0,0 0,-1 0,0 0,1 0,1 0,0 0,0 0,0 0,0 0,0 0,0 0,0l0 0zm-32 59c0,0 0,0 0,0 -1,1 -1,1 0,1 0,0 0,-1 1,0 1,0 1,0 1,-1 0,0 -1,0 -1,0 0,0 0,0 0,-1 0,0 0,-1 -1,-1 0,0 0,0 0,1 0,0 0,1 0,1l0 0zm-2 3c-1,0 -2,-3 -3,-3 0,0 0,0 0,0 0,1 -3,2 -3,2 0,1 1,1 1,2 1,0 2,0 2,0 0,1 -2,2 -1,2 1,0 1,0 1,0 0,1 1,1 0,1 0,1 0,1 1,1 0,-1 1,-2 1,-2 1,0 1,-1 0,-1 0,0 0,0 0,-1 0,0 1,-1 1,-1l0 0zm-8 3c0,0 0,-2 1,-2 0,0 1,0 1,0 0,-1 -1,-2 -1,-2 0,0 -1,1 -1,1 0,-1 -1,-1 -1,-1 -1,0 -2,0 -2,0 1,0 1,1 1,1 0,1 0,1 0,1 1,0 2,0 2,0 0,1 -1,1 -1,1 0,0 -1,0 0,1 0,0 0,1 1,1 0,-1 0,-1 0,-1l0 0zm18 -20c0,0 2,-1 1,-2 0,0 -1,0 -1,0 0,1 -1,1 -1,2 0,0 0,0 1,0 0,0 0,0 0,0l0 0zm-15 56c0,0 3,-2 3,-2 0,0 0,1 0,1 0,1 0,1 -1,1 -1,0 -2,1 -2,0l0 0zm1 -3c0,0 0,-2 1,-1 0,0 1,1 0,1 0,1 -1,1 -1,0l0 0zm-13 8c1,0 1,0 1,0 -1,0 0,-2 0,-2 -1,1 -2,3 -2,3 1,-1 1,0 1,-1l0 0zm-27 23c0,0 -2,0 -3,1 0,0 -1,1 0,1 2,-1 2,-1 2,0 0,0 1,1 2,0 0,0 0,-1 1,-1 0,0 0,0 0,0 0,0 -1,-1 -1,-1 -1,0 -1,0 -1,0l0 0zm3 0c0,0 0,1 1,0 1,0 1,0 1,0 1,0 1,-1 0,-1 0,0 -2,0 -2,1l0 0zm-2 8c0,0 -2,1 -1,1 0,0 1,0 2,0 1,0 1,1 2,0 0,-1 -1,-3 -1,-2 0,1 -2,1 -2,1l0 0zm0 -3c0,0 1,-1 1,-1 1,1 0,1 0,2 -1,0 -1,0 -1,-1 0,0 0,0 0,0l0 0zm-5 2c1,0 1,-1 0,-1 0,0 1,0 1,0 1,1 2,1 1,1 -1,1 -1,0 -1,1 -1,0 -1,-1 -1,-1l0 0zm-12 -7c0,0 -2,0 -2,-1 0,0 0,0 1,0 1,0 1,0 1,0 0,1 0,1 0,1l0 0zm14 30c0,0 0,-1 1,0 1,0 1,0 1,0 0,-1 0,-1 0,-1 -1,-1 -1,-1 -1,0 0,0 -1,0 -1,0 -1,1 0,2 0,2 0,0 0,-1 0,-1l0 0z"/>
  <g>
  </g>
  <g style="clip-path:url(#id0)">
   <g>
    <path class="fil1" d="M210 96c-1,0 -1,0 -1,0 0,-1 0,-1 1,-1 0,0 0,0 0,1 0,0 0,0 0,0l0 0z"/>
   </g>
  </g>
  <path class="fil2 str0" d="M188 86c0,-1 0,-1 0,-2 0,-1 0,-2 2,-2 2,0 1,-1 3,-2 2,0 4,-1 6,-1 1,0 2,-1 2,0 1,1 3,4 3,5 0,1 2,3 3,3 0,0 1,1 3,2 1,2 2,2 4,3 2,0 5,0 6,0 1,-1 3,-1 3,0 0,1 -1,3 0,2 1,0 3,-1 3,-1 0,0 1,-1 1,1 0,1 1,4 2,5 1,1 1,3 2,1 1,-1 2,-4 5,-5 2,0 4,-1 4,-3 0,-2 -1,-2 0,-3 0,0 2,0 2,-1 1,-1 3,-1 3,-1 1,1 1,1 3,0 1,0 1,-1 4,-1 2,0 3,0 3,1 -1,1 -1,2 -1,3 0,1 1,2 1,4 0,1 0,4 1,3 2,-1 3,-1 4,-1 1,0 0,1 1,2 0,1 0,3 1,2 2,0 3,-1 4,0 1,2 2,3 1,4 0,0 1,1 0,1 0,1 -5,3 -5,4 0,1 -1,2 -2,2 -1,0 -3,0 -4,0 0,1 -1,1 -2,3 -1,1 -3,4 -2,5 1,0 1,1 0,1 0,0 -1,2 -2,3 -2,1 -4,2 -4,2 -1,1 -1,1 -2,0 0,0 0,0 -1,0 0,0 -1,-2 -2,-2 -1,0 -3,-1 -5,-1 -2,0 -10,0 -10,2 -1,2 -3,5 -4,5 -1,-1 -3,-1 -4,0 -1,0 -1,2 0,1 1,-1 1,-2 2,-1 1,1 4,2 5,1 0,-2 1,-5 4,-5 3,-1 7,-1 7,0 -1,2 -1,3 0,4 0,0 1,0 0,1 0,1 1,1 1,2 0,1 0,3 0,4 0,1 -1,1 0,2 1,0 1,-1 1,-1 0,0 0,0 1,0 1,0 1,0 1,-1 1,-1 1,-1 2,-2 2,0 4,1 4,2 0,1 -1,1 1,1 1,0 8,-5 9,-6 1,-1 5,-3 7,-4 2,-1 4,-1 6,0 2,0 9,3 11,7 2,3 4,7 6,9 3,2 3,3 3,3 1,0 2,-1 3,-1 1,0 1,2 2,1 2,0 2,0 2,0 0,1 -1,2 0,2 2,0 3,0 4,1 1,1 3,1 3,1 1,0 3,1 4,0 1,0 2,0 3,-1 0,-1 1,0 1,0 0,1 1,2 -1,3 -2,0 -3,1 -4,1 -1,0 -1,0 -1,1 -1,1 -2,2 -3,2 -1,0 -1,1 -2,1 -1,0 -1,1 -2,1 0,1 0,2 -1,3 -1,0 -1,0 -1,1 1,0 0,1 0,1 -1,0 -2,0 -2,1 0,0 -1,1 -1,1 -1,1 -1,1 -1,1 0,0 0,1 -1,1 0,0 0,0 0,1 0,0 0,1 -1,1 -1,0 -2,1 -2,0 0,0 0,0 0,0 -1,1 -1,2 -2,2 -1,-1 -2,-1 -2,0 -1,0 -3,2 -3,0 0,-1 0,-1 -1,-1 0,1 -1,1 -1,1 -1,0 -1,1 -1,1 0,1 1,2 0,2 -1,0 -1,1 -1,2 1,0 1,0 1,1 0,0 0,1 1,0 0,-1 1,-3 2,-3 1,0 0,0 1,0 1,0 0,1 0,2 -1,0 -3,2 -2,3 1,0 1,0 2,-1 1,-2 1,-2 1,-3 0,-1 3,-2 4,-2 1,-1 2,0 2,-1 0,0 0,-1 1,-1 0,0 1,-1 2,0 0,0 1,0 1,0 1,0 1,0 1,0 -1,1 0,2 0,2 0,1 1,1 2,0 0,-1 0,-2 0,-2 1,0 2,0 1,-1 0,0 -1,-1 -2,0 -1,0 -2,0 -2,0 -1,0 1,-1 1,-2 0,0 0,-1 1,-1 1,0 1,0 2,-1 1,0 2,0 2,0 1,0 2,-1 2,-1 0,-1 0,-1 0,0 0,0 2,0 1,0 0,0 0,1 1,1 0,0 1,0 1,1 0,1 0,1 0,1 -1,1 -1,1 -1,1 0,1 0,1 -1,1 0,0 -2,1 -1,1 1,1 1,1 1,1 1,0 0,2 1,2 0,0 2,1 1,1 0,1 -1,1 -1,2 0,0 0,0 0,-1 -1,0 -1,0 -1,1 0,0 -1,1 -1,1 -1,1 -1,1 -1,1 1,0 2,0 2,1 -1,1 -1,1 -1,1 1,0 2,0 2,1 -1,0 -2,0 -2,1 0,1 -1,1 0,2 2,0 2,1 3,0 0,0 1,0 0,1 0,0 -1,1 0,1 0,1 0,2 0,1 -1,0 -1,0 -1,1 0,0 -2,1 -3,1 0,0 -2,2 -2,2 -1,-1 -1,-1 -1,-2 -1,0 -2,-1 -1,-1 1,-1 1,-2 1,-3 -1,0 -1,0 -1,-1 1,-1 1,-1 0,-1 0,0 -1,0 0,-1 1,0 2,-2 0,-1 -1,0 -1,0 -1,-1 0,-1 0,-1 0,-1 -1,0 -2,0 -1,0 0,0 1,3 0,3 0,0 -1,0 0,1 0,1 1,2 0,3 0,1 0,1 0,2 -1,0 -1,1 -1,1 0,0 0,-1 -1,-1 0,0 -1,2 -2,1 -1,0 -2,1 -2,-1 0,-1 1,-6 0,-6 0,0 0,1 0,1 -1,0 -1,0 0,0 0,1 0,2 0,3 0,0 -1,1 0,2 0,1 -1,2 -1,1 0,0 0,-1 -1,-1 0,-1 0,-1 0,-2 0,0 0,-2 0,-2 -1,0 -2,-1 -1,0 0,0 1,1 0,1 -1,0 -2,-1 -3,0 0,0 0,1 0,1 1,1 1,1 1,2 -1,0 -1,0 -1,1 0,1 1,1 0,1 -1,0 -2,2 -2,1 1,-1 0,-2 0,-1 0,0 0,1 0,1 -1,1 -1,1 -1,0 -1,0 -1,-1 -2,0 0,0 0,1 0,1 1,0 2,-1 2,0 0,1 0,0 1,1 0,1 1,2 2,1 1,0 2,-1 2,0 1,0 2,1 3,0 0,0 1,0 1,1 0,1 -1,1 -1,2 0,1 -1,1 -1,1 -1,0 -1,-2 -2,-1 0,0 -1,0 -1,0 -1,0 -1,1 -1,1 1,0 1,1 0,1 0,1 0,2 1,1 1,0 1,0 1,-1 -1,0 -1,-1 -1,-1 0,0 0,0 1,0 1,1 3,1 4,0 0,-1 0,-1 0,0 1,0 0,0 1,0 1,0 2,1 2,1 -1,1 -1,1 -1,1 -1,1 -2,1 -1,2 0,0 2,0 3,1 0,1 0,1 -1,1 0,0 0,1 -1,1 0,0 0,0 -1,0 -1,-1 -4,-2 -4,-1 -1,1 -1,1 -1,0 0,0 0,-2 -1,-2 0,1 0,2 -1,1 0,0 -2,0 -2,0 0,1 1,1 2,1 0,0 0,1 1,1 1,1 1,1 3,1 1,0 2,1 2,2 -1,0 -1,2 0,1 1,0 1,0 2,0 0,1 0,1 0,1 -1,0 -3,2 -2,2 1,0 2,-1 2,0 0,0 -1,0 -1,1 -1,0 -2,0 -2,1 0,1 1,2 0,2 -1,0 -2,0 -3,1 -1,1 -3,1 -4,0 -1,0 -2,1 -1,2 0,0 2,0 2,3 1,2 2,4 3,5 0,1 0,0 1,0 1,-1 2,-1 2,0 -1,2 -1,2 -2,2 0,0 -1,0 0,1 1,0 1,1 0,1 -1,1 -1,1 0,2 1,2 0,4 1,4 1,0 1,0 2,1 0,1 1,-1 2,0 0,0 0,0 -1,1 0,0 0,0 0,1 0,1 -1,2 -1,2 0,0 -1,0 0,0 0,1 0,1 -1,1 -1,1 -1,1 -1,0 0,-1 0,-1 0,-2 -1,0 -1,-2 -1,-1 -1,0 -2,0 -2,-1 -1,-1 -3,0 -3,0 0,0 -1,3 -1,2 -1,-1 -1,-1 -2,-1 0,0 0,1 0,2 1,0 2,0 1,1 -1,1 -1,1 -1,1 -1,0 -2,1 -2,2 0,0 -1,1 0,1 0,0 1,0 1,0 0,-1 1,0 0,1 0,0 -1,2 -2,2 0,-1 -1,-2 -1,-2 -1,0 -2,0 -2,-1 0,0 0,0 0,0 -1,1 -1,1 -1,2 0,0 -1,1 0,2 1,0 2,1 2,2 -1,1 -1,1 -2,1 -1,-1 -2,-1 -1,-1 0,1 1,1 0,1 0,1 -1,0 -1,0 0,0 -2,1 -2,2 0,0 0,-1 -1,-1 -1,1 -1,1 -1,0 0,-1 1,-2 0,-2 0,0 -1,-2 0,-3 1,0 2,-1 2,-2 1,0 1,0 1,-1 0,-1 0,-2 2,-1 1,1 2,2 2,0 -1,-1 -2,-3 -2,-4 1,-1 0,-2 0,-2 0,0 -2,0 -2,-1 1,-1 2,-1 2,-1 0,-1 -1,-1 -2,-1 0,0 -1,-2 -1,-1 -1,0 -1,0 0,1 0,1 -1,1 -2,1 0,1 0,1 -1,2 0,2 -1,2 -2,2 -1,-1 -1,-2 -2,-2 0,1 -1,2 0,2 1,0 2,0 3,1 1,0 1,0 1,1 0,1 -1,1 0,1 0,1 0,2 -1,2 -1,-1 -1,-1 -1,0 1,1 1,1 0,1 -1,0 -1,0 -1,1 0,1 0,1 -1,1 -1,0 -1,0 -1,0 0,1 0,2 -1,2 -1,0 -1,0 -1,1 1,0 2,1 1,2 -1,1 -1,1 -1,2 -1,1 -1,2 -2,2 0,0 -1,0 -2,0 0,0 -4,0 -5,-1 0,-1 -1,-1 -1,-1 0,0 0,0 -1,0 -1,-1 -1,-1 -1,-1 -1,0 -3,0 -3,0 0,-1 0,-1 -1,-1 0,1 -1,2 -2,1 -1,0 -1,-1 -1,-2 0,-1 -1,-1 -1,0 0,0 0,3 1,3 1,0 3,0 4,0 1,0 2,1 2,1 0,1 1,1 1,1 1,0 1,1 2,1 0,0 3,0 3,1 1,1 1,3 1,4 -1,1 -1,2 -2,2 -1,1 -2,1 -2,2 0,0 -2,3 -2,4 0,1 0,2 -2,1 -1,0 -2,1 -2,1 1,0 1,1 0,2 0,0 -1,1 0,1 0,0 1,1 0,2 0,0 -1,1 -1,1 -1,0 -1,0 -1,0 0,1 -1,1 -1,1 -1,0 -1,0 -1,1 1,0 1,0 1,1 -1,1 -1,2 0,2 1,0 1,1 1,1 1,0 4,1 3,2 -1,1 -1,1 -1,1 0,0 0,0 -1,0 0,0 0,0 0,0 0,1 0,1 0,2 0,0 0,0 0,1 0,0 0,2 -1,1 -1,0 -1,-1 -2,-1 0,0 0,0 -1,0 0,0 -1,0 -1,0 0,0 0,0 0,0 1,1 1,1 0,1 0,0 0,1 0,1 -1,1 -2,1 -1,2 1,0 2,0 2,0 0,1 -1,2 -1,2 -1,0 -2,1 -2,1 1,1 2,2 1,2 -1,1 0,1 0,2 0,0 -1,2 -2,2 -1,0 -1,0 -1,-1 0,-1 0,-2 0,-2 -1,0 -1,1 -1,2 0,1 -1,-1 -1,-1 0,0 -1,-1 0,-3 0,-1 -1,-3 -1,-4 -1,0 -2,-1 -2,-2 -1,-1 -1,-2 -2,-2 -1,0 -2,0 -2,-1 -1,0 -1,-1 -2,-1 -2,0 -5,0 -5,0 0,0 -1,1 -2,1 0,1 -2,3 -3,3 0,0 -1,0 -2,-1 0,0 -1,-1 -2,0 -1,1 -2,2 -3,3 -1,0 -2,0 -2,0 -1,0 -1,-1 -1,0 -1,0 0,0 -1,0 -1,0 -2,0 -2,0 0,0 -1,0 -1,0 1,-1 1,-2 0,-2 0,0 0,-1 -1,-1 0,-1 0,-2 -1,-3 -1,0 -1,-1 -1,-2 0,-1 1,-4 0,-4 -1,0 -2,0 -2,0 0,-1 1,-3 -1,-2 -1,0 -2,-1 -1,-2 1,-1 1,-3 -1,-3 -1,0 -4,0 -5,2 0,1 -2,6 -2,6 -1,1 -4,0 -4,0 -1,1 -3,3 -4,4 -1,0 -1,0 -2,1 0,1 -1,2 -2,2 -2,-1 -4,-1 -4,-2 -1,-1 -1,-2 -2,-2 -1,1 -2,1 -2,0 -1,0 -1,0 -2,0 -2,0 -5,1 -5,1 0,0 -1,0 -1,-1 -1,0 -3,-3 -2,-3 1,0 2,0 2,-2 0,-1 0,-5 -1,-6 0,-1 0,-1 0,-2 0,-1 -1,-2 -1,-3 -1,-1 -1,-2 -1,-2 0,-1 0,-2 -1,-4 0,-1 0,-2 -1,-3 0,0 -1,-1 -2,-2 -1,0 -1,0 -1,-1 -1,-2 -1,-4 0,-5 1,-2 3,-3 3,-4 -1,-1 -2,-3 -2,-4 1,-1 3,-2 1,-3 -1,0 -2,0 -2,-1 0,-1 -1,-3 -2,-2 -1,0 -1,1 -2,2 -1,0 -2,1 -3,1 0,-1 -1,-2 -2,-2 -1,0 -3,0 -3,1 -1,1 -1,1 -2,1 0,0 -1,-1 -1,-2 -1,0 -1,0 0,-1 0,-1 2,-2 1,-3 0,-1 -1,-3 -1,-3 0,-1 1,-3 1,-4 -1,-1 -2,-1 -2,-2 0,-1 1,-2 0,-3 -1,-1 -1,-1 -1,-2 1,-1 2,-4 1,-5 -1,0 -1,-2 -1,-3 0,-1 -1,-3 -1,-4 -1,0 -2,-1 -2,-1 -1,0 -1,0 -1,-1 0,-1 -1,-5 -3,-5 -1,1 -3,1 -2,0 0,-1 1,-2 0,-2 -1,-1 -2,-2 -3,-2 -1,0 -2,0 -2,-1 -1,-1 -1,-2 -2,-2 0,0 0,-1 0,-1 0,0 0,-1 -1,-2 0,0 0,0 0,-1 1,-1 0,-2 0,-3 -1,0 -1,-1 0,-2 1,-1 1,-1 1,-2 0,-2 0,-3 2,-3 1,1 3,1 4,-1 0,-1 1,-2 1,-3 0,-1 -1,-2 1,-3 2,-1 1,-1 3,-1 3,1 2,0 2,-1 0,-1 -1,-3 1,-2 2,0 2,0 5,-1 2,-1 2,0 2,-2 0,-1 1,-2 2,-3 1,0 3,-4 4,-3 1,0 2,0 3,-1 1,-1 4,-3 4,-4 0,-1 -1,-2 0,-3 0,-1 0,-2 1,-3 2,-1 5,-3 4,-4 0,-1 0,-2 0,-2 1,0 3,0 3,-1 -1,-2 -1,-6 -1,-6 -1,0 -1,-3 0,-3 1,-1 1,-1 0,-2 0,0 -2,0 -1,-1 1,-1 4,-2 3,-2 -1,-1 -2,-1 -2,-3 0,-1 2,-5 4,-5 2,1 3,1 4,2 0,0 1,1 2,0 1,0 1,0 2,1 2,0 5,1 5,0 1,-2 2,-2 3,-3 1,-1 2,-1 3,0 0,1 2,1 2,0 0,-1 0,-2 -1,-2 -1,-1 -1,-3 -2,-4 0,-1 0,-4 -1,-4 -1,0 -3,1 -3,0 0,-1 1,-3 0,-4 0,-1 0,-1 1,-1 1,0 3,-1 4,-2 1,-1 2,-2 2,-1 0,1 1,2 2,1 1,-1 3,-3 3,-3 -1,-1 0,-4 0,-4 1,0 3,-1 3,-2 0,0 1,-2 0,-3 0,-1 0,-2 1,-3 0,-1 2,-3 2,-5 0,-1 0,-3 0,-3l0 0zm124 70c0,0 0,-2 0,-1 -1,0 -1,1 -1,0 -1,0 -2,0 -2,1 0,1 0,2 0,2 -1,0 -1,1 -1,1 1,0 1,-1 2,0 0,0 2,0 1,0 0,1 0,1 0,1 1,0 1,0 1,1 0,0 0,1 0,1 1,-1 2,-1 2,0 0,0 1,0 1,0 0,-1 1,-2 0,-2 -1,-1 -1,-2 -2,-2 -1,0 -1,0 -1,0 0,-1 0,-2 0,-2l0 0zm-6 3c0,0 1,-1 1,-1 1,-1 0,-1 0,-1 0,0 -1,0 -1,1 0,0 0,1 0,1l0 0zm18 -8c-1,0 0,0 0,-1 0,0 0,0 0,-1 -1,-1 -1,-3 -1,-3 0,0 1,0 2,0 0,0 1,-1 1,-1 0,1 1,2 0,2 -1,0 -2,1 -1,1 2,0 2,0 1,1 0,1 -2,1 -1,2 0,0 1,2 0,1 -1,0 -1,0 -1,-1zm-4 -2c0,1 -2,1 -1,2 1,0 2,0 2,0 1,-1 1,-1 0,-1 0,-1 -1,-1 -1,-1l0 0zm0 5c0,0 1,-1 1,-1 -1,-1 -1,-2 -2,-1 0,0 0,1 -1,0 0,0 -1,-1 -1,0 -1,0 -1,0 0,1 0,0 1,0 1,1 0,0 0,1 1,1 0,0 1,0 1,1 1,0 1,0 1,-1 -1,-1 -1,-1 -1,-1l0 0zm-1 3c0,0 -2,-1 -2,-1 -1,0 -1,1 0,1 0,0 1,1 1,1 1,0 3,0 2,0 0,-1 -1,-1 -1,-1l0 0zm0 3c0,0 -2,0 -2,0 0,0 -1,-1 -1,-1 0,0 0,1 0,1 1,1 2,1 2,1 1,0 1,-1 1,-1 0,0 0,0 0,0l0 0zm0 -21c0,1 -1,1 -1,0 0,-1 -1,-1 -1,-1 -1,0 -2,-1 -2,-2 0,-1 -1,0 -1,0 -1,0 -2,1 -3,0 0,0 0,-2 -1,-2 -1,0 -2,0 -2,1 -1,1 -1,0 -2,0 0,0 0,-1 -1,0 -1,0 -1,0 -1,0 0,-1 0,-2 -1,-2 -1,0 0,0 -1,0 0,1 0,1 0,1 1,1 2,2 2,3 0,1 0,3 1,3 0,0 1,0 1,1 0,2 0,2 1,2 0,0 1,1 1,1 0,-1 0,-2 1,-2 1,0 1,0 2,1 1,1 1,0 2,0 1,0 2,0 2,1 1,1 4,2 5,2 2,0 1,-1 1,-1 -1,0 -1,-1 0,-2 0,0 1,-1 1,-2 -1,0 -2,-2 -3,-2l0 0zm-20 0c0,0 0,-1 -1,0 0,0 0,0 0,1 0,1 0,4 0,4 -1,1 0,1 0,1 1,-1 1,-1 1,-1 1,0 3,-1 2,-2 0,-1 0,-2 -1,-2 0,0 0,0 -1,0 0,-1 0,-1 0,-1l0 0zm16 -7c0,0 -2,-1 -2,0 0,0 -1,1 -1,1 0,1 0,1 0,1 0,1 0,1 1,0 1,0 2,-2 2,-2 0,0 0,0 0,0l0 0zm-4 -7c0,0 -1,1 -2,1 0,1 0,1 0,1 1,0 1,0 1,0 1,1 1,1 1,1 1,0 1,0 1,0 0,1 0,1 1,1 1,0 1,0 1,0 1,1 1,1 2,0 0,0 0,0 0,-1 0,0 -1,-1 -1,-1 0,-1 0,-1 1,-1 0,0 1,0 0,-1 0,0 -1,0 -1,-1 0,0 0,0 0,0 0,0 -2,2 -2,1 0,0 -2,-1 -2,-1 0,1 0,1 0,1l0 0zm11 4c0,0 0,-1 1,-1 1,0 1,0 1,0 0,1 -1,2 0,1 1,0 1,0 1,-1 0,0 0,0 0,-1 0,0 -1,0 -1,0 -1,0 -3,0 -3,1 -1,0 -1,0 -1,0 0,0 -2,1 -2,2 1,0 1,0 2,0 0,-1 1,-1 1,-1 1,0 1,0 1,0 0,0 0,0 0,0l0 0zm0 -11c0,0 0,-1 -1,0 0,0 -1,1 -1,1 0,1 0,1 0,1 -1,-1 -1,-1 -1,-1 -1,0 -1,0 -1,-1 0,-1 0,-2 0,-2 1,0 1,0 2,1 1,0 2,0 2,-1 0,0 1,-1 1,0 0,1 0,1 1,1 0,0 2,0 2,1 0,1 0,1 -1,1 -1,0 -3,0 -3,0 0,-1 0,-1 0,-1l0 0zm8 -16c0,0 0,-1 0,-1 0,0 -2,1 -3,0 -1,0 -2,-1 -1,-1 0,1 1,1 0,2 0,0 -1,1 0,1 0,0 1,-1 2,-1 1,0 2,1 2,1 1,-1 0,-1 0,-1l0 0zm2 3c0,-1 0,-1 -1,-1 0,0 -1,1 0,1 0,0 1,0 1,0 1,0 1,0 0,0l0 0zm10 -4c0,0 0,-1 -1,0 0,1 0,1 0,1 1,0 1,0 1,0 1,-1 1,-1 0,-1l0 0zm2 0c0,0 0,-1 -1,0 0,0 0,0 1,1 0,0 1,1 1,0 0,-1 0,-1 -1,-1l0 0zm-9 -5c0,0 -1,0 -1,0 0,-1 0,-1 0,-1 1,0 1,0 1,1l0 0zm1 0c0,0 0,0 0,0 0,-1 0,-1 0,0 0,0 0,0 0,0l0 0zm1 1c0,0 0,0 0,-1 0,0 0,0 0,0 0,0 0,0 0,1l0 0zm0 1c0,0 0,0 0,0 0,0 0,0 0,0 0,0 0,0 0,0l0 0zm-1 -4c0,0 0,-1 1,-1 1,0 0,1 1,1 1,0 0,0 0,0 0,0 -1,0 -2,0l0 0zm-28 13c0,0 0,-1 -1,-1 0,1 -1,1 0,1 0,0 0,0 1,0l0 0zm-1 2c0,1 0,0 0,1 1,1 1,1 1,0 0,0 0,-1 0,-1 0,0 -1,0 -1,0l0 0zm31 22c0,0 0,0 0,0 0,-1 0,-1 0,-1 1,1 1,2 1,2 0,0 -1,-1 -1,-1l0 0zm-1 -1c0,0 -1,0 -1,0 0,1 0,1 0,1 1,1 1,0 1,0 0,-1 0,-1 0,-1l0 0zm3 1c0,0 -1,-1 -1,0 0,1 1,1 1,0 0,0 0,0 0,0 0,0 0,0 0,0l0 0zm-32 59c0,0 0,0 -1,1 0,0 -1,0 0,0 1,0 1,-1 2,0 1,0 1,0 1,-1 0,0 -1,0 -1,0 0,0 -1,0 0,0 0,-1 -1,-2 -1,-2 0,0 0,0 0,1 0,0 0,1 0,1l0 0zm-3 3c0,0 -2,-3 -2,-3 0,0 0,0 0,0 -1,1 -3,2 -3,2 0,1 0,1 1,2 0,0 2,0 1,0 0,1 -1,2 0,2 1,0 1,0 1,0 0,1 0,1 0,1 0,1 0,1 1,1 0,-1 0,-2 1,-2 1,0 0,0 0,-1 0,0 -1,0 0,-1 0,0 1,-1 0,-1l0 0zm-7 3c0,0 0,-2 0,-2 1,0 2,0 2,0 0,-1 -1,-2 -1,-2 0,1 -1,1 -1,1 -1,-1 -1,-1 -2,-1 0,0 -1,0 -1,0 0,1 0,1 0,1 0,1 1,1 1,1 1,0 1,0 1,0 1,1 0,1 0,1 -1,0 -1,0 -1,1 1,0 1,1 1,1 1,-1 1,-1 1,-1l0 0zm18 -20c0,0 1,-1 1,-2 -1,0 -1,0 -1,0 0,1 -1,1 -1,2 0,0 0,0 0,0 1,0 1,0 1,0l0 0zm-15 56c0,0 2,-2 3,-1 0,0 0,0 0,0 0,1 -1,1 -1,1 -1,0 -2,1 -2,0l0 0zm1 -3c0,0 0,-2 0,-1 1,0 2,1 1,1 -1,1 -1,1 -1,0l0 0zm-13 8c0,0 1,0 0,0 0,0 1,-2 0,-2 0,1 -2,3 -1,3 0,0 1,0 1,-1l0 0zm-28 23c0,0 -2,0 -2,1 0,0 -1,1 0,1 1,-1 1,-1 2,0 0,0 1,1 1,0 1,0 1,-1 2,-1 0,0 0,0 0,0 -1,0 -1,-1 -2,-1 0,0 -1,0 -1,0l0 0zm4 0c0,0 0,1 1,0 0,0 0,0 1,0 0,0 1,-1 0,-1 -1,0 -2,0 -2,1l0 0zm-2 8c-1,0 -2,1 -2,1 1,0 2,0 3,0 0,0 1,1 1,0 0,-1 0,-2 0,-2 -1,1 -2,1 -2,1l0 0zm0 -3c0,0 0,-1 1,-1 0,1 0,1 -1,2 0,0 -1,0 -1,-1 0,0 1,0 1,0l0 0zm-5 2c0,0 0,0 0,-1 0,0 0,0 1,0 0,1 1,1 1,1 -1,1 -1,1 -2,1 0,0 0,-1 0,-1l0 0zm-12 -7c-1,0 -2,0 -2,-1 0,0 0,0 1,0 0,0 1,0 1,0 0,1 0,1 0,1l0 0zm14 30c0,0 0,-1 1,0 0,0 1,0 1,0 0,-1 0,-1 -1,-1 0,0 0,-1 0,0 -1,0 -1,0 -2,0 0,1 0,2 1,2 0,0 0,-1 0,-1l0 0z"/>
  <path class="fil2 str1" d="M230 100c0,0 -1,1 -1,1 1,1 1,3 0,4 -1,1 -2,1 -3,1 -1,0 -2,-1 -2,-1 0,1 0,4 -1,5 -1,0 -1,1 -1,2 0,1 0,2 0,3 -1,0 -1,1 -1,1"/>
  <path class="fil2 str1" d="M226 124c0,0 -2,0 -2,0 -1,0 -1,-1 -2,-1 -1,0 -1,-1 0,-1 1,-1 1,-2 1,-3 0,0 -1,-4 -2,-3 -1,0 -2,0 -3,0 -1,0 -1,-1 -1,-1 0,-1 0,-2 -1,-1 0,2 -1,3 -2,3 -1,0 -2,-1 -3,-1 -1,0 -2,0 -2,2 0,1 1,2 0,2 -2,0 -3,0 -4,0 -1,0 -1,0 -2,0 0,0 -1,0 -1,0 -1,-1 -1,-1 -2,-2 -1,-1 -1,-1 -2,-1 -2,0 -2,0 -2,-1 0,-1 0,-1 -1,-1 -1,0 -1,0 -2,-1 -1,0 -2,0 -2,1 0,1 0,3 0,2 1,-2 2,-2 2,-1 0,1 -1,3 -1,4 0,1 0,5 -2,4 -2,-1 -1,-3 -2,-2 0,0 -1,1 -2,1 -1,0 -1,-1 -2,0 0,1 -1,2 -2,1 -1,-1 -1,-2 -1,0 -1,1 -4,1 -4,1"/>
  <path class="fil2 str1" d="M125 174c0,0 2,4 3,5 0,0 1,-1 1,0 0,1 1,2 2,2 0,0 0,1 2,1 2,-1 2,-1 2,0 1,1 0,2 2,2 1,0 2,0 2,1 -1,1 -1,2 -1,2 1,1 1,2 1,2 0,1 0,3 3,3 2,0 3,0 4,-1 0,-1 0,-2 1,-2 1,-1 1,-2 2,-2 1,0 3,-3 4,-3 0,0 2,1 3,3 1,2 1,2 1,3 1,0 0,1 1,1 2,0 6,-2 6,-1 1,1 1,1 2,1 0,-1 2,-4 3,-4 0,1 2,1 2,1 0,1 -2,2 -1,5 1,2 3,4 3,5 1,1 1,1 1,5 0,4 -1,4 0,5 1,1 0,2 1,3 0,0 0,2 0,3"/>
  <path class="fil2 str1" d="M171 188c0,0 1,-1 2,-3 0,-2 0,-5 2,-5 1,0 1,0 3,0 2,0 1,0 2,1 0,1 0,3 2,2 3,0 5,-1 5,-2 1,-1 2,-2 4,-2 2,-1 2,-5 2,-6 0,-1 2,-2 2,-5 0,-3 2,-5 4,-5 1,1 1,2 3,1 3,-1 3,-1 4,0 1,0 2,1 2,2 -1,1 -2,3 -1,4 1,0 3,1 4,2 0,1 0,2 2,2 1,-1 2,-2 2,-2 0,0 0,-1 1,0 1,1 4,1 3,2 0,1 -1,2 0,2 1,1 1,0 1,2 0,1 0,4 2,2 3,-1 4,-2 5,-3 0,-1 2,-3 2,-2 1,1 2,3 3,4 1,1 2,4 4,4 2,0 3,0 3,0 1,0 2,-1 3,0 0,2 1,1 1,1 1,0 1,1 1,2 1,1 1,3 2,3"/>
  <path class="fil2 str1" d="M205 163c0,0 0,-1 0,-2 -1,0 -1,0 -1,0 0,1 -1,1 -2,1 0,-1 -1,-2 -1,-3 1,0 6,0 6,0 1,-1 1,-2 1,-3 0,-1 0,-1 0,-1 1,0 4,0 5,-2 1,-2 1,-3 2,-3 0,0 2,-2 3,-1 1,0 2,1 2,0 1,0 2,0 2,0 1,0 1,-1 1,-2 1,-1 2,-1 1,-2 0,-1 -2,-3 -1,-4 0,-1 -1,-2 -1,-2 -1,-1 -1,-2 0,-2 1,0 2,-2 3,-1 1,2 3,1 3,1 1,-1 1,-2 2,-2 1,0 2,1 3,1 1,0 1,0 1,0 1,1 2,1 3,1"/>
  <path class="fil2 str1" d="M251 135c0,0 1,3 2,4 1,1 2,2 2,3 0,1 0,2 2,2 2,0 3,-1 3,0 0,1 -1,3 -1,3 -1,0 -1,0 -1,1 0,0 -1,2 -2,2 0,0 0,1 1,1 1,1 1,2 3,2 1,0 1,2 1,2 0,1 0,1 -1,2 -1,0 -3,2 -2,3 0,0 0,2 0,2 0,1 0,2 0,2 1,1 2,1 3,2 1,0 1,0 1,1 0,1 -1,2 0,3 1,1 2,0 3,1 1,0 2,0 2,2 0,3 0,3 0,4 0,1 2,2 1,4 -2,1 -4,3 -3,4 0,1 0,2 -1,3 0,0 1,2 2,2 1,-1 2,0 2,1 0,1 0,3 2,3 1,0 4,0 5,-1 1,0 2,0 2,0"/>
  <path class="fil2 str1" d="M265 183c0,0 -1,0 -1,0 -1,0 -2,-1 -2,0 0,1 -1,1 -1,0 -1,-1 -2,0 -2,0 0,0 -1,1 -1,1 -1,0 -2,0 -2,0 0,1 0,1 -1,1 -1,0 -3,-1 -3,0 -1,2 -1,3 -2,3 -1,0 -1,-2 -1,-1 -1,0 -1,1 -2,1 0,0 -1,1 -1,1 0,0 -1,2 -2,2 0,0 -2,2 -2,2 0,1 2,1 1,2 0,0 0,0 -1,0 0,1 0,1 0,1 0,1 1,4 0,5 -1,1 -2,3 -2,4 0,1 0,2 -1,2 -1,1 -2,1 -3,2 -1,1 -3,2 -3,2 -1,0 -3,-1 -3,0 -1,0 -2,0 -2,0"/>
  <path class="fil2 str1" d="M267 238c0,0 1,-2 0,-3 0,0 0,-1 0,-1 0,-1 0,-2 0,-3 -1,0 -1,-1 -2,-1 0,0 0,-1 -1,-1 0,0 -1,-2 -2,-1 -1,2 -3,3 -4,3 -2,0 -4,-1 -5,-1 -1,1 -3,2 -3,1 0,-1 0,-3 -1,-3 -1,-1 -2,-1 -2,-3 -1,-1 -2,-1 -3,-1 -1,1 -3,2 -4,2 -1,0 -1,0 -1,1 0,1 0,2 -1,2 -1,0 -2,-1 -3,-1 -1,0 -2,0 -3,-1 -1,-1 -2,-3 -3,-1 -1,2 -1,3 -1,4 1,1 1,2 0,2 -1,0 -3,1 -2,2 0,1 -1,1 -1,1 0,0 -2,1 -1,3 0,1 0,2 1,2 1,1 2,1 3,2 0,2 1,6 0,7 -1,1 -1,1 -1,2 0,1 0,2 -1,2 -1,0 -1,1 -1,1 0,1 0,1 0,2 -1,1 -1,2 -1,3 0,1 0,1 -1,1 -1,0 -2,0 -3,1 -1,1 -1,3 -2,3 -1,-1 -1,-1 -2,-2 0,-1 -1,-2 -2,-2 -2,1 -3,2 -5,2 -2,0 -3,0 -4,-1 0,0 0,0 -1,0 -1,0 -1,0 -2,0 0,-1 -1,-1 -2,1 -1,1 -1,2 -2,2 0,0 -1,-1 -1,0 0,1 0,4 -1,5 -1,1 -3,3 -3,3 -1,0 -1,1 -2,1 0,1 -1,3 -1,3 -1,0 -1,2 -1,3"/>
  <path class="fil2 str1" d="M143 242c0,0 2,-4 2,-4 0,-1 0,-2 0,-2 -1,0 -1,0 -1,-1 0,0 0,-3 0,-3 0,-1 1,-1 1,-1 1,0 2,-2 4,-2 1,0 3,1 4,0 0,-1 0,-4 1,-4 0,-1 2,-2 3,-3 1,0 2,-4 4,-4 2,-1 5,-1 5,-1 1,-1 3,-1 4,-1 1,-1 1,-2 3,-2 2,0 1,0 2,1 0,0 1,1 2,1 1,0 1,1 2,1 0,-1 2,-2 2,0 0,1 0,3 0,3 0,1 -1,2 -1,3 1,1 2,1 2,1 0,1 1,2 1,3 -1,1 -1,1 -1,2 1,1 1,2 2,2 2,0 5,-1 6,0 1,0 1,-1 2,-3 1,-2 3,-4 4,-4 0,0 1,-1 1,-2 0,-1 1,-3 2,-3 0,0 2,-3 2,-4 0,-1 2,-2 3,-1 0,0 1,0 2,0 1,0 1,0 1,1 1,1 2,1 2,1 1,-1 2,-1 3,-1 0,1 2,2 3,1 0,-1 3,-3 4,-5 1,-1 1,-2 1,-2 0,-1 -1,-1 0,-2 1,-1 2,-1 2,0 1,2 2,4 3,3 1,0 3,1 3,1 0,1 0,1 -1,2 -1,1 -2,2 -2,2 0,1 0,2 0,3 0,1 -1,2 -1,2 -1,1 -1,2 -1,2 0,1 2,3 0,3 -1,1 -2,0 -2,1 0,2 1,4 1,4 1,0 4,1 4,2 0,0 1,0 1,0"/>
  <path class="fil3 str2" d="M203 143c0,0 -1,2 -1,3 0,1 -1,1 -2,2 0,0 -1,0 -1,1 -1,1 -1,2 -2,2 0,0 -3,2 -2,1 1,0 3,0 4,-1 0,-1 0,-2 1,-3 1,0 3,-2 4,-3 0,-1 0,-2 1,-2 1,0 4,0 5,-1 1,-1 2,-1 3,-1 1,-1 3,-2 2,-2 0,-1 0,-2 -1,-2 0,0 -2,-1 -1,-2 1,-1 5,-4 5,-4 -1,-1 -1,-1 -1,-1 0,1 -2,2 -3,3 -1,0 -1,1 -2,1 -1,0 -1,1 0,2 1,1 3,3 1,3 -2,0 -2,0 -3,1 0,1 -2,2 -2,2 -1,0 -2,0 -3,0 -1,0 -2,1 -2,1l0 0z"/>
  <path class="fil3" d="M265 213c0,-1 0,-1 0,-2 0,0 -1,-1 -1,-1 0,1 -1,1 0,2 0,0 1,1 1,1 1,0 2,0 2,0 1,1 1,1 1,1 0,1 0,2 1,2 2,0 2,1 3,1 0,1 0,2 0,2 0,1 0,1 1,1 1,0 5,-1 5,-1 1,1 1,0 0,0 0,0 0,-1 -1,0 -1,0 -4,-1 -4,-2 0,0 0,-1 -1,-1 -1,0 -3,-1 -3,-2 -1,-1 -1,-1 -1,-1 -1,0 -1,-2 -1,-1 0,0 -1,-1 -1,0 0,1 0,1 -1,1l0 0z"/>
  <path class="fil2 str2" d="M265 213c0,-1 0,-1 0,-2 0,0 -1,-1 -1,-1 0,1 -1,1 0,2 0,0 1,1 1,1 1,0 2,0 2,0 1,1 1,1 1,1 0,1 0,2 1,2 2,0 2,1 3,1 0,1 0,2 0,2 0,1 0,1 1,1 1,0 5,-1 5,-1 1,1 1,0 0,0 0,0 0,-1 -1,0 -1,0 -4,-1 -4,-2 0,0 0,-1 -1,-1 -1,0 -3,-1 -3,-2 -1,-1 -1,-1 -1,-1 -1,0 -1,-2 -1,-1 0,0 -1,-1 -1,0 0,1 0,1 -1,1l0 0z"/>
  <path class="fil3" d="M140 178c0,0 -1,-1 -1,-1 0,1 -1,2 -1,1 -1,-1 0,-1 -1,-2 -1,0 -1,0 -1,1 0,1 -1,1 -1,2 -1,0 0,0 1,0 0,0 2,0 3,0 1,1 2,-1 3,0 0,1 -1,2 0,2 1,0 1,0 2,-1 1,-1 2,-1 2,-2 0,-1 -1,-2 0,-1 1,0 2,0 2,-1 1,0 2,0 1,1 -1,2 -3,2 -3,3 1,1 2,-1 3,-1 0,1 1,0 1,0 1,1 1,1 2,0 0,-2 0,-3 0,-2 1,0 2,0 2,-1 0,0 1,1 1,0 0,-1 0,-2 1,-2 1,1 1,0 1,0 0,-1 0,-1 1,-1 2,0 2,0 2,1 -1,1 0,1 1,1 1,0 2,-1 3,0 1,1 2,0 3,0 1,0 1,0 1,0 0,1 1,3 1,0 0,-2 0,-2 0,-2 -1,-1 -1,-2 -1,-2 1,-1 0,-3 -1,-3 0,0 0,0 0,2 -1,2 -1,2 -2,2 -2,0 -3,-1 -1,-1 1,0 2,-1 2,-2 0,0 -1,0 -2,0 0,1 -1,2 -2,1 0,0 1,-2 0,-2 -1,1 -1,1 -1,2 0,0 0,1 -1,1 -1,0 -1,0 -2,1 -1,1 -3,1 -2,0 0,0 3,-4 4,-4 1,-1 3,-2 3,-2 0,-1 -1,-2 0,-2 1,0 2,0 2,0 0,-1 0,-1 1,-1 0,-1 1,-2 1,-2 -1,1 -2,2 -3,1 0,0 -1,-2 0,-3 0,-2 1,-2 0,-3 0,0 0,0 0,0 0,1 0,2 -1,2 0,0 0,0 0,0 0,1 0,1 0,2 -1,0 -1,1 -1,1 1,0 2,2 1,2 -1,0 -2,1 -1,1 0,0 0,1 -1,1 -1,0 -1,0 -1,0 0,1 0,1 -1,1 0,0 0,0 0,0 0,1 -1,1 -1,1 -1,0 -1,1 -2,1 0,-1 -1,-2 -1,-2 -1,0 -2,0 -2,0 -1,-1 -1,-1 -2,-1 0,0 0,1 0,0 0,0 -1,0 -1,0 -1,0 -2,-2 -2,-2 0,-1 0,-1 1,-1 0,0 0,0 0,-1 0,0 -1,-1 -2,-1 -1,0 -1,1 -1,1 1,1 1,2 0,1 -1,0 -1,0 -1,0 0,1 0,1 1,1 0,0 1,0 1,1 -1,0 -2,0 0,0 1,0 1,0 2,1 1,1 1,1 2,1 0,0 0,0 1,0 1,1 0,1 1,1 1,0 1,0 2,0 0,1 0,1 -1,1 -2,0 -1,0 -1,1 1,0 1,1 1,1 -1,1 -1,0 -2,1 0,0 -1,1 -1,1 -1,0 -1,2 -2,1 0,-1 0,-2 0,-1 0,0 -1,0 -1,0 0,0 0,0 0,0 0,1 0,1 0,2 0,0 -1,1 -1,0 -1,0 -1,0 -2,0 0,1 -1,1 -1,2 0,0 0,0 -1,0 0,0 -2,0 -2,0 0,1 0,1 1,1 1,0 1,0 2,0 1,0 1,0 1,1 -1,0 -1,0 -1,0 0,1 0,1 -1,1 -1,0 -1,-1 -1,-1 -1,0 -1,0 -1,0 0,0 -1,0 -1,0l0 0z"/>
  <path class="fil2 str2" d="M140 178c0,0 -1,-1 -1,-1 0,1 -1,2 -1,1 -1,-1 0,-1 -1,-2 -1,0 -1,0 -1,1 0,1 -1,1 -1,2 -1,0 0,0 1,0 0,0 2,0 3,0 1,1 2,-1 3,0 0,1 -1,2 0,2 1,0 1,0 2,-1 1,-1 2,-1 2,-2 0,-1 -1,-2 0,-1 1,0 2,0 2,-1 1,0 2,0 1,1 -1,2 -3,2 -3,3 1,1 2,-1 3,-1 0,1 1,0 1,0 1,1 1,1 2,0 0,-2 0,-3 0,-2 1,0 2,0 2,-1 0,0 1,1 1,0 0,-1 0,-2 1,-2 1,1 1,0 1,0 0,-1 0,-1 1,-1 2,0 2,0 2,1 -1,1 0,1 1,1 1,0 2,-1 3,0 1,1 2,0 3,0 1,0 1,0 1,0 0,1 1,3 1,0 0,-2 0,-2 0,-2 -1,-1 -1,-2 -1,-2 1,-1 0,-3 -1,-3 0,0 0,0 0,2 -1,2 -1,2 -2,2 -2,0 -3,-1 -1,-1 1,0 2,-1 2,-2 0,0 -1,0 -2,0 0,1 -1,2 -2,1 0,0 1,-2 0,-2 -1,1 -1,1 -1,2 0,0 0,1 -1,1 -1,0 -1,0 -2,1 -1,1 -3,1 -2,0 0,0 3,-4 4,-4 1,-1 3,-2 3,-2 0,-1 -1,-2 0,-2 1,0 2,0 2,0 0,-1 0,-1 1,-1 0,-1 1,-2 1,-2 -1,1 -2,2 -3,1 0,0 -1,-2 0,-3 0,-2 1,-2 0,-3 0,0 0,0 0,0 0,1 0,2 -1,2 0,0 0,0 0,0 0,1 0,1 0,2 -1,0 -1,1 -1,1 1,0 2,2 1,2 -1,0 -2,1 -1,1 0,0 0,1 -1,1 -1,0 -1,0 -1,0 0,1 0,1 -1,1 0,0 0,0 0,0 0,1 -1,1 -1,1 -1,0 -1,1 -2,1 0,-1 -1,-2 -1,-2 -1,0 -2,0 -2,0 -1,-1 -1,-1 -2,-1 0,0 0,1 0,0 0,0 -1,0 -1,0 -1,0 -2,-2 -2,-2 0,-1 0,-1 1,-1 0,0 0,0 0,-1 0,0 -1,-1 -2,-1 -1,0 -1,1 -1,1 1,1 1,2 0,1 -1,0 -1,0 -1,0 0,1 0,1 1,1 0,0 1,0 1,1 -1,0 -2,0 0,0 1,0 1,0 2,1 1,1 1,1 2,1 0,0 0,0 1,0 1,1 0,1 1,1 1,0 1,0 2,0 0,1 0,1 -1,1 -2,0 -1,0 -1,1 1,0 1,1 1,1 -1,1 -1,0 -2,1 0,0 -1,1 -1,1 -1,0 -1,2 -2,1 0,-1 0,-2 0,-1 0,0 -1,0 -1,0 0,0 0,0 0,0 0,1 0,1 0,2 0,0 -1,1 -1,0 -1,0 -1,0 -2,0 0,1 -1,1 -1,2 0,0 0,0 -1,0 0,0 -2,0 -2,0 0,1 0,1 1,1 1,0 1,0 2,0 1,0 1,0 1,1 -1,0 -1,0 -1,0 0,1 0,1 -1,1 -1,0 -1,-1 -1,-1 -1,0 -1,0 -1,0 0,0 -1,0 -1,0l0 0z"/>
  <path class="fil3" d="M187 168c0,0 2,-1 2,-2 0,-1 0,-1 0,-2 1,0 1,-2 1,-1 0,1 0,5 -1,5 0,0 -3,1 -3,2 0,1 -1,3 -1,4 0,1 0,3 -1,3 -1,0 0,1 0,2 1,0 1,1 1,2 0,0 -1,1 -1,2 0,1 -1,1 -1,2 1,1 1,4 0,4 -1,0 -4,-1 -3,-1 1,-1 3,0 3,-1 0,-1 -1,-2 0,-2 0,-1 0,-2 0,-2 -1,-1 -1,-2 -1,-2 1,0 2,-2 1,-2 -1,-1 -1,-1 -1,-2 1,0 1,0 1,-1 1,-1 1,-1 1,-2 -1,0 -2,-1 -3,-1 0,1 -2,0 -2,1 -1,1 -2,1 -2,1 0,-1 0,-2 1,-2 0,0 2,-1 2,-1 1,1 2,0 4,0 1,0 1,0 1,-1 0,0 1,-3 2,-3l0 0z"/>
  <path class="fil2 str2" d="M187 168c0,0 2,-1 2,-2 0,-1 0,-1 0,-2 1,0 1,-2 1,-1 0,1 0,5 -1,5 0,0 -3,1 -3,2 0,1 -1,3 -1,4 0,1 0,3 -1,3 -1,0 0,1 0,2 1,0 1,1 1,2 0,0 -1,1 -1,2 0,1 -1,1 -1,2 1,1 1,4 0,4 -1,0 -4,-1 -3,-1 1,-1 3,0 3,-1 0,-1 -1,-2 0,-2 0,-1 0,-2 0,-2 -1,-1 -1,-2 -1,-2 1,0 2,-2 1,-2 -1,-1 -1,-1 -1,-2 1,0 1,0 1,-1 1,-1 1,-1 1,-2 -1,0 -2,-1 -3,-1 0,1 -2,0 -2,1 -1,1 -2,1 -2,1 0,-1 0,-2 1,-2 0,0 2,-1 2,-1 1,1 2,0 4,0 1,0 1,0 1,-1 0,0 1,-3 2,-3l0 0z"/>
  <path class="fil2 str3" d="M240 92c0,0 2,6 2,6 1,1 2,3 0,3 -1,0 -3,1 -3,1 0,0 -7,4 -7,5 -1,0 -5,3 -5,5 0,2 1,3 -2,3 -2,0 -2,1 -5,1 -3,1 -5,1 -6,3 -1,1 -2,2 -1,3 1,1 0,2 0,3 0,1 0,3 1,4 2,1 2,2 2,2"/>
  <line class="fil2 str2" x1="241" y1="94" x2="242" y2= "93" />
  <line class="fil2 str2" x1="241" y1="101" x2="242" y2= "102" />
  <line class="fil2 str2" x1="234" y1="105" x2="235" y2= "107" />
  <line class="fil2 str2" x1="227" y1="112" x2="229" y2= "112" />
  <line class="fil2 str2" x1="223" y1="116" x2="223" y2= "117" />
  <line class="fil2 str2" x1="215" y1="118" x2="216" y2= "119" />
  <line class="fil2 str2" x1="213" y1="123" x2="215" y2= "123" />
  <path class="fil2 str2" d="M123 178c0,0 2,2 3,2 1,0 1,1 2,2 0,0 0,1 0,3 0,1 2,2 1,3 0,1 -1,4 -1,5 1,1 1,2 0,3 -1,1 0,1 0,2 0,1 -1,1 -2,2 0,2 0,3 1,4 0,1 1,2 2,2 1,-1 3,0 3,1 1,2 3,2 4,1 1,0 3,-1 4,-1 2,-1 4,-1 5,-1 2,0 3,1 4,1 1,-1 2,-3 3,-3 1,0 1,0 3,0 1,0 3,0 4,-1 1,-1 2,-2 3,-2 2,0 4,0 5,-1 1,-1 5,-2 6,-2 2,-1 3,-2 5,-3 2,-2 2,-2 2,-3 1,-2 0,-4 0,-4"/>
  <path class="fil2 str2" d="M190 163c0,0 -2,-1 -1,-2 1,-1 2,-3 2,-4 1,-1 4,-5 4,-5"/>
  <path class="fil2 str2" d="M236 254c0,0 -2,-2 -3,-2 -1,0 -3,-1 -4,-1 -1,0 0,-2 -2,-1 -2,1 -4,2 -6,1 -2,0 -3,-2 -4,-3 0,-1 1,-3 -2,-4 -3,0 -3,-1 -3,-2 0,0 0,-1 -2,-1 -1,0 -3,0 -3,-1 -1,0 -1,-1 -2,0 -1,0 -1,0 -1,-1 0,-1 1,-5 -1,-5 -1,0 -1,0 -2,0 0,-1 -1,-1 -2,-1 -1,1 0,5 -2,6 -2,2 -6,5 -7,7 0,3 -3,4 -4,4 -1,0 -2,-2 -3,-1 -1,0 -3,3 -5,3 -1,1 -4,1 -5,2 -1,1 -2,-2 -3,0 -2,1 -2,2 -3,2 -1,-1 -2,-1 -2,0 0,1 -1,1 -2,1 -1,0 -2,1 -1,2 0,1 -1,2 -2,2 0,0 0,2 -1,3 0,1 -3,3 -4,4 0,2 0,4 2,4 1,0 2,2 3,1 0,-1 1,0 2,0 1,1 3,1 4,0"/>
  <path class="fil2 str2" d="M180 191c0,0 1,1 3,3 1,2 5,5 6,4 2,-1 2,-2 4,-2 2,0 6,-2 8,-3 3,-1 4,-1 4,-2 1,-1 2,-1 3,-3 0,-1 3,-4 4,-4 2,-1 2,-1 3,0 1,1 1,1 2,1 1,0 2,1 2,1 1,1 3,0 5,-1 1,0 2,-1 3,-3 1,-2 4,-4 3,-4 -1,-1 -1,0 -1,-1"/>
  <path class="fil2 str2" d="M223 229c0,0 0,-1 -1,-3 0,-1 0,-2 1,-1 2,0 2,-2 3,-2 1,0 0,-3 1,-4 2,0 4,-2 6,-2 1,0 3,-1 4,-2 0,-2 3,-4 3,-3 0,1 3,1 3,0 1,-1 1,-2 2,-2 1,0 2,-2 5,-2 4,1 4,1 5,1 2,1 2,1 3,1 1,-1 2,-1 2,-1 1,1 2,3 3,2 1,0 1,0 1,0"/>
  <path class="fil2 str2" d="M169 176c0,0 3,1 4,0 0,-1 1,-1 1,-2 1,0 2,-1 2,0 0,0 -1,1 0,2 1,0 1,-1 1,-1"/>
  <path class="fil0 str2" d="M151 177c-1,0 -1,1 -1,1 1,0 1,-1 1,-1 0,0 0,0 0,0l0 0z"/>
  <path class="fil0 str2" d="M150 175c0,1 -1,1 -1,1 1,0 2,0 2,0 0,-1 -1,-1 -1,-1l0 0z"/>
  <path class="fil0 str2" d="M150 173c0,0 -1,1 0,1 1,0 1,0 1,-1 0,0 0,0 0,0 -1,0 -1,0 -1,0z"/>
  <path class="fil0 str2" d="M153 173c0,0 -2,0 -1,0 1,1 1,1 2,0 0,0 0,0 0,0 -1,0 -1,0 -1,0l0 0z"/>
  <path class="fil0 str2" d="M160 172c0,0 1,2 2,1 0,0 0,0 0,0 0,-1 0,-1 -1,-1 0,0 -1,0 -1,0l0 0z"/>
  <path class="fil4" d="M235 143c1,0 1,1 1,2 0,1 0,1 -1,1 -1,0 -2,0 -2,-1 0,-1 1,-2 2,-2l0 0z"/>
  <path class="fil5" d="M307 137l-1 0 1 0c0,0 0,0 0,0l0 0c0,0 0,1 0,1 0,0 0,0 -1,1l1 0c0,0 0,-1 0,-1 1,0 1,-1 1,-1l1 0 0 1c0,0 0,0 0,0 0,0 0,0 0,0l0 0c0,0 0,1 0,1 0,0 1,-1 1,-1 0,0 0,0 0,0l0 -1 1 0 -1 -1 0 1 0 0 0 -2 0 0 0 0 -1 0 -1 0c0,0 0,0 0,0 1,0 1,0 1,0l-1 0c0,0 0,0 0,0l0 0 -1 0c0,0 0,1 0,2l0 0zm1 -2l1 0 0 2 -1 0 0 -2zm0 1l0 0c0,0 0,0 0,0 0,0 1,0 1,0 0,0 0,0 0,0 0,0 0,0 0,0 0,0 -1,0 -1,0l0 0zm0 1l0 0c0,0 0,0 0,1 0,0 0,0 1,0 0,0 0,0 0,0 0,0 0,-1 0,-1 0,0 -1,0 -1,0l0 0z"/>
  <path class="fil6" d="M118 509c0,0 0,0 0,0 0,0 0,1 0,1 0,0 -1,-1 -1,-1 0,0 1,0 1,0l0 0z"/>
  <path class="fil2 str4" d="M118 509c0,0 0,0 0,0 0,0 0,1 0,1 0,0 -1,-1 -1,-1 0,0 1,0 1,0l0 0z"/>
  <path class="fil6" d="M116 508c0,0 0,0 0,0 0,0 0,0 0,0 0,0 0,0 0,0 0,0 0,0 0,0l0 0z"/>
  <path class="fil2 str4" d="M116 508c0,0 0,0 0,0 0,0 0,0 0,0 0,0 0,0 0,0 0,0 0,0 0,0l0 0z"/>
  <path class="fil6" d="M117 504c0,0 1,0 1,1 0,0 -1,0 -1,0 0,0 0,0 0,0 0,-1 0,-1 0,-1l0 0z"/>
  <path class="fil2 str4" d="M117 504c0,0 1,1 1,1 0,0 -1,0 -1,0 0,0 0,0 0,0 0,0 0,-1 0,-1l0 0z"/>
  <path class="fil6" d="M118 501c0,0 0,0 0,0 0,1 0,1 0,1 0,0 0,0 0,-1 0,0 0,0 0,0l0 0z"/>
  <path class="fil2 str4" d="M118 501c0,0 0,0 0,0 0,0 0,1 0,1 0,0 0,-1 0,-1 0,0 0,0 0,0l0 0z"/>
  <path class="fil6" d="M128 501c0,0 0,0 0,0 0,1 0,1 0,1 -1,0 -1,0 -1,-1 0,0 0,0 1,0l0 0z"/>
  <path class="fil2 str4" d="M128 501c0,0 0,0 0,0 0,0 0,1 0,1 0,0 -1,-1 -1,-1 0,0 1,0 1,0l0 0z"/>
  <path class="fil6" d="M125 500c0,0 1,0 1,0 0,0 -1,0 -1,0 0,0 0,0 0,0 0,0 0,0 0,0l0 0z"/>
  <path class="fil2 str4" d="M125 500c0,0 1,0 1,0 0,0 -1,0 -1,0 0,0 0,0 0,0 0,0 0,0 0,0l0 0z"/>
  <path class="fil6" d="M127 497c0,0 0,0 0,1 0,0 0,0 0,0 0,0 0,0 0,0 0,-1 0,-1 0,-1l0 0z"/>
  <path class="fil2 str4" d="M127 497c0,0 0,1 0,1 0,0 0,0 0,0 0,0 0,0 0,0 0,0 0,-1 0,-1l0 0z"/>
  <path class="fil6" d="M123 495c0,0 0,0 0,0 0,1 0,1 0,1 -1,0 -1,0 -1,-1 0,0 0,0 1,0l0 0z"/>
  <path class="fil2 str4" d="M123 495c0,0 0,0 0,0 0,0 0,1 0,1 0,0 -1,-1 -1,-1 0,0 1,0 1,0l0 0z"/>
  <path class="fil6" d="M122 493c1,0 1,0 1,0 0,0 0,0 -1,0 0,0 0,0 0,0 0,0 0,0 0,0l0 0z"/>
  <path class="fil2 str4" d="M122 493c0,0 1,0 1,0 0,0 -1,0 -1,0 0,0 0,0 0,0 0,0 0,0 0,0l0 0z"/>
  <path class="fil6" d="M125 493c0,0 1,0 1,0 0,0 -1,1 -1,1 0,0 0,-1 0,-1 0,0 0,0 0,0l0 0z"/>
  <path class="fil2 str4" d="M125 493c0,0 1,0 1,0 0,0 -1,1 -1,1 0,0 0,-1 0,-1 0,0 0,0 0,0l0 0z"/>
  <path class="fil6" d="M127 493c0,0 0,0 0,0 0,0 0,0 0,0 0,0 0,0 0,0 0,0 0,0 0,0l0 0z"/>
  <path class="fil2 str4" d="M127 493c0,0 0,0 0,0 0,0 0,0 0,0 0,0 0,0 0,0 0,0 0,0 0,0l0 0z"/>
  <path class="fil6" d="M130 491c0,0 0,0 0,0 0,0 0,0 0,0 0,0 0,0 0,0 0,0 0,0 0,0l0 0z"/>
  <path class="fil2 str4" d="M130 491c0,0 0,0 0,0 0,0 0,0 0,0 0,0 0,0 0,0 0,0 0,0 0,0l0 0z"/>
  <path class="fil6" d="M117 498c0,0 0,0 0,0 0,0 0,0 0,0 0,0 0,0 0,0 0,0 0,0 0,0l0 0z"/>
  <path class="fil2 str4" d="M117 498c0,0 0,0 0,0 0,0 0,0 0,0 0,0 0,0 0,0 0,0 0,0 0,0l0 0z"/>
  <path class="fil6" d="M115 500c0,0 1,0 1,0 0,0 -1,0 -1,0 0,0 0,0 0,0 0,0 0,0 0,0l0 0z"/>
  <path class="fil2 str4" d="M115 500c0,0 1,0 1,0 0,0 -1,0 -1,0 0,0 0,0 0,0 0,0 0,0 0,0l0 0z"/>
  <path class="fil6" d="M117 505c0,0 0,1 0,1 0,0 0,0 0,0 0,0 -1,0 -1,0 0,0 1,-1 1,-1l0 0z"/>
  <path class="fil2 str4" d="M117 505c0,0 0,1 0,1 0,0 0,0 0,0 0,0 -1,0 -1,0 0,0 1,-1 1,-1l0 0z"/>
 </g>
</svg>
